<svg xmlns="http://www.w3.org/2000/svg" xmlns:xlink="http://www.w3.org/1999/xlink" width="384" zoomAndPan="magnify" viewBox="0 0 384 383.999986" height="383.999986" preserveAspectRatio="xMidYMid meet" version="1.0"><defs><clipPath id="id1"><path d="M 32 9.699219 L 358 9.699219 L 358 374.199219 L 32 374.199219 Z M 32 9.699219 " clip-rule="nonzero"/></clipPath><clipPath id="id2"><path d="M 97.285156 97.285156 L 287.035156 97.285156 L 287.035156 287.035156 L 97.285156 287.035156 Z M 97.285156 97.285156 " clip-rule="nonzero"/></clipPath><clipPath id="id3"><path d="M 30.984375 230.84375 L 102.234375 230.84375 L 102.234375 302.09375 L 30.984375 302.09375 Z M 30.984375 230.84375 " clip-rule="nonzero"/></clipPath><clipPath id="id4"><path d="M 287.964844 230.84375 L 359.214844 230.84375 L 359.214844 302.09375 L 287.964844 302.09375 Z M 287.964844 230.84375 " clip-rule="nonzero"/></clipPath><clipPath id="id5"><path d="M 159 7.1875 L 230.25 7.1875 L 230.25 78.4375 L 159 78.4375 Z M 159 7.1875 " clip-rule="nonzero"/></clipPath><clipPath id="id6"><path d="M 31.375 82.070312 L 101.875 82.070312 L 101.875 152.570312 L 31.375 152.570312 Z M 31.375 82.070312 " clip-rule="nonzero"/></clipPath><clipPath id="id7"><path d="M 288.742188 82.070312 L 359.242188 82.070312 L 359.242188 152.570312 L 288.742188 152.570312 Z M 288.742188 82.070312 " clip-rule="nonzero"/></clipPath><clipPath id="id8"><path d="M 159.777344 305.257812 L 230.277344 305.257812 L 230.277344 375.757812 L 159.777344 375.757812 Z M 159.777344 305.257812 " clip-rule="nonzero"/></clipPath></defs><g clip-path="url(#id1)"><path fill="rgb(0%, 0%, 0%)" d="M 340.878906 236.394531 C 339.03125 235.347656 337.140625 234.527344 335.203125 233.84375 L 335.203125 149.851562 C 337.117188 149.167969 339.054688 148.550781 340.878906 147.503906 C 357.226562 138.074219 362.835938 117.136719 353.398438 100.824219 C 344.003906 84.535156 323.027344 78.886719 306.679688 88.316406 C 304.855469 89.367188 303.214844 90.621094 301.664062 91.941406 L 228.996094 50.136719 C 229.386719 48.109375 229.636719 46.011719 229.636719 43.871094 C 229.636719 25.03125 214.292969 9.699219 195.4375 9.699219 C 176.578125 9.699219 161.234375 25.03125 161.234375 43.871094 C 161.234375 46.011719 161.484375 48.109375 161.875 50.136719 L 89.207031 91.917969 C 87.65625 90.597656 86.015625 89.367188 84.191406 88.296875 C 67.867188 78.886719 46.890625 84.535156 37.472656 100.824219 C 28.035156 117.136719 33.644531 138.074219 49.992188 147.503906 C 51.816406 148.550781 53.753906 149.167969 55.667969 149.851562 L 55.667969 233.84375 C 53.730469 234.527344 51.839844 235.324219 49.992188 236.394531 C 33.644531 245.828125 28.035156 266.765625 37.472656 283.074219 C 43.789062 294.011719 55.304688 300.160156 67.160156 300.160156 C 72.953125 300.160156 78.835938 298.703125 84.191406 295.605469 C 86.015625 294.558594 87.65625 293.304688 89.207031 291.984375 L 161.875 333.761719 C 161.484375 335.792969 161.234375 337.886719 161.234375 340.027344 C 161.234375 358.867188 176.578125 374.199219 195.4375 374.199219 C 214.292969 374.199219 229.636719 358.867188 229.636719 340.027344 C 229.636719 337.886719 229.386719 335.792969 228.996094 333.761719 L 301.664062 291.984375 C 303.214844 293.304688 304.855469 294.535156 306.679688 295.605469 C 312.035156 298.703125 317.917969 300.160156 323.710938 300.160156 C 335.566406 300.160156 347.058594 294.03125 353.398438 283.074219 C 362.835938 266.765625 357.226562 245.828125 340.878906 236.394531 Z M 173.410156 314.101562 L 100.539062 272.207031 C 101.976562 264.484375 100.929688 256.238281 96.710938 248.902344 C 92.492188 241.589844 85.878906 236.578125 78.46875 233.957031 L 78.46875 149.851562 C 85.878906 147.230469 92.492188 142.285156 96.734375 134.996094 C 100.949219 127.660156 102 119.4375 100.5625 111.691406 L 173.410156 69.796875 C 179.382812 74.855469 187 78.042969 195.4375 78.042969 C 203.871094 78.042969 211.488281 74.855469 217.460938 69.796875 L 290.332031 111.691406 C 288.894531 119.414062 289.941406 127.660156 294.160156 134.996094 C 298.378906 142.308594 304.992188 147.230469 312.402344 149.851562 L 312.402344 233.957031 C 304.992188 236.578125 298.378906 241.613281 294.136719 248.925781 C 289.921875 256.261719 288.871094 264.484375 290.308594 272.230469 L 217.460938 314.125 C 211.488281 309.046875 203.871094 305.855469 195.4375 305.855469 C 187 305.855469 179.382812 309.046875 173.410156 314.101562 Z M 173.410156 314.101562 " fill-opacity="1" fill-rule="nonzero"/></g><path fill="rgb(0%, 0%, 0%)" d="M 263.835938 191.949219 C 263.835938 193.070312 263.808594 194.1875 263.753906 195.304688 C 263.699219 196.421875 263.617188 197.535156 263.507812 198.648438 C 263.398438 199.761719 263.261719 200.871094 263.097656 201.976562 C 262.933594 203.085938 262.742188 204.1875 262.523438 205.285156 C 262.304688 206.378906 262.058594 207.472656 261.785156 208.554688 C 261.515625 209.640625 261.214844 210.71875 260.890625 211.789062 C 260.566406 212.859375 260.214844 213.921875 259.839844 214.972656 C 259.460938 216.027344 259.058594 217.070312 258.628906 218.105469 C 258.203125 219.136719 257.75 220.160156 257.269531 221.171875 C 256.789062 222.183594 256.289062 223.179688 255.761719 224.167969 C 255.230469 225.152344 254.679688 226.125 254.105469 227.085938 C 253.53125 228.046875 252.929688 228.988281 252.308594 229.921875 C 251.6875 230.851562 251.042969 231.765625 250.375 232.664062 C 249.710938 233.5625 249.019531 234.441406 248.308594 235.308594 C 247.601562 236.171875 246.871094 237.019531 246.117188 237.847656 C 245.367188 238.675781 244.59375 239.484375 243.800781 240.277344 C 243.011719 241.066406 242.199219 241.839844 241.371094 242.589844 C 240.542969 243.339844 239.695312 244.070312 238.828125 244.78125 C 237.964844 245.488281 237.082031 246.179688 236.183594 246.84375 C 235.28125 247.511719 234.367188 248.15625 233.4375 248.777344 C 232.507812 249.398438 231.5625 249.996094 230.601562 250.570312 C 229.640625 251.144531 228.667969 251.695312 227.679688 252.222656 C 226.691406 252.75 225.691406 253.253906 224.679688 253.730469 C 223.667969 254.210938 222.644531 254.664062 221.613281 255.089844 C 220.578125 255.519531 219.535156 255.921875 218.480469 256.300781 C 217.425781 256.675781 216.363281 257.027344 215.292969 257.351562 C 214.21875 257.675781 213.140625 257.972656 212.054688 258.246094 C 210.96875 258.515625 209.878906 258.761719 208.78125 258.980469 C 207.683594 259.199219 206.578125 259.390625 205.472656 259.554688 C 204.363281 259.71875 203.253906 259.855469 202.140625 259.964844 C 201.027344 260.074219 199.910156 260.15625 198.792969 260.210938 C 197.671875 260.265625 196.554688 260.292969 195.4375 260.292969 C 194.316406 260.292969 193.199219 260.265625 192.078125 260.210938 C 190.960938 260.15625 189.84375 260.074219 188.730469 259.964844 C 187.617188 259.855469 186.507812 259.71875 185.398438 259.554688 C 184.292969 259.390625 183.1875 259.199219 182.089844 258.980469 C 180.992188 258.761719 179.902344 258.515625 178.816406 258.246094 C 177.730469 257.972656 176.652344 257.675781 175.578125 257.351562 C 174.507812 257.027344 173.445312 256.675781 172.390625 256.300781 C 171.339844 255.921875 170.292969 255.519531 169.257812 255.089844 C 168.226562 254.664062 167.203125 254.210938 166.191406 253.730469 C 165.179688 253.253906 164.179688 252.75 163.191406 252.222656 C 162.203125 251.695312 161.230469 251.144531 160.269531 250.570312 C 159.308594 249.996094 158.363281 249.398438 157.433594 248.777344 C 156.503906 248.15625 155.589844 247.511719 154.6875 246.84375 C 153.789062 246.179688 152.90625 245.488281 152.042969 244.78125 C 151.175781 244.070312 150.328125 243.339844 149.5 242.589844 C 148.671875 241.839844 147.859375 241.066406 147.070312 240.277344 C 146.277344 239.484375 145.503906 238.675781 144.753906 237.847656 C 144 237.019531 143.269531 236.171875 142.5625 235.308594 C 141.851562 234.441406 141.160156 233.5625 140.496094 232.664062 C 139.828125 231.765625 139.183594 230.851562 138.5625 229.921875 C 137.941406 228.988281 137.339844 228.046875 136.765625 227.085938 C 136.191406 226.125 135.640625 225.152344 135.109375 224.167969 C 134.582031 223.179688 134.082031 222.183594 133.601562 221.171875 C 133.121094 220.160156 132.667969 219.136719 132.242188 218.105469 C 131.8125 217.070312 131.410156 216.027344 131.03125 214.972656 C 130.65625 213.921875 130.304688 212.859375 129.980469 211.789062 C 129.65625 210.71875 129.355469 209.640625 129.085938 208.554688 C 128.8125 207.472656 128.566406 206.378906 128.347656 205.285156 C 128.128906 204.1875 127.9375 203.085938 127.773438 201.976562 C 127.609375 200.871094 127.472656 199.761719 127.363281 198.648438 C 127.253906 197.535156 127.171875 196.421875 127.117188 195.304688 C 127.0625 194.1875 127.035156 193.070312 127.035156 191.949219 C 127.035156 190.832031 127.0625 189.714844 127.117188 188.597656 C 127.171875 187.480469 127.253906 186.363281 127.363281 185.25 C 127.472656 184.136719 127.609375 183.027344 127.773438 181.921875 C 127.9375 180.816406 128.128906 179.714844 128.347656 178.617188 C 128.566406 177.519531 128.8125 176.429688 129.085938 175.34375 C 129.355469 174.257812 129.65625 173.179688 129.980469 172.109375 C 130.304688 171.039062 130.65625 169.980469 131.03125 168.925781 C 131.410156 167.871094 131.8125 166.828125 132.242188 165.796875 C 132.667969 164.761719 133.121094 163.742188 133.601562 162.730469 C 134.082031 161.71875 134.582031 160.71875 135.109375 159.734375 C 135.640625 158.746094 136.191406 157.773438 136.765625 156.816406 C 137.339844 155.855469 137.941406 154.910156 138.5625 153.980469 C 139.183594 153.050781 139.828125 152.136719 140.496094 151.238281 C 141.160156 150.339844 141.851562 149.457031 142.5625 148.59375 C 143.269531 147.730469 144 146.882812 144.753906 146.054688 C 145.503906 145.222656 146.277344 144.414062 147.070312 143.625 C 147.859375 142.832031 148.671875 142.0625 149.5 141.3125 C 150.328125 140.558594 151.175781 139.828125 152.042969 139.121094 C 152.90625 138.410156 153.789062 137.722656 154.6875 137.054688 C 155.589844 136.390625 156.503906 135.746094 157.433594 135.125 C 158.363281 134.503906 159.308594 133.90625 160.269531 133.328125 C 161.230469 132.753906 162.203125 132.203125 163.191406 131.675781 C 164.179688 131.148438 165.179688 130.644531 166.191406 130.167969 C 167.203125 129.691406 168.226562 129.238281 169.257812 128.808594 C 170.292969 128.378906 171.339844 127.976562 172.390625 127.601562 C 173.445312 127.226562 174.507812 126.875 175.578125 126.550781 C 176.652344 126.226562 177.730469 125.925781 178.816406 125.65625 C 179.902344 125.382812 180.992188 125.136719 182.089844 124.917969 C 183.1875 124.703125 184.292969 124.511719 185.398438 124.347656 C 186.507812 124.183594 187.617188 124.046875 188.730469 123.9375 C 189.84375 123.824219 190.960938 123.742188 192.078125 123.6875 C 193.199219 123.632812 194.316406 123.605469 195.4375 123.605469 C 196.554688 123.605469 197.671875 123.632812 198.792969 123.6875 C 199.910156 123.742188 201.027344 123.824219 202.140625 123.9375 C 203.253906 124.046875 204.363281 124.183594 205.472656 124.347656 C 206.578125 124.511719 207.683594 124.703125 208.78125 124.917969 C 209.878906 125.136719 210.96875 125.382812 212.054688 125.65625 C 213.140625 125.925781 214.21875 126.226562 215.292969 126.550781 C 216.363281 126.875 217.425781 127.226562 218.480469 127.601562 C 219.535156 127.976562 220.578125 128.378906 221.613281 128.808594 C 222.644531 129.238281 223.667969 129.691406 224.679688 130.167969 C 225.691406 130.644531 226.691406 131.148438 227.679688 131.675781 C 228.667969 132.203125 229.640625 132.753906 230.601562 133.328125 C 231.5625 133.90625 232.507812 134.503906 233.4375 135.125 C 234.367188 135.746094 235.28125 136.390625 236.183594 137.054688 C 237.082031 137.722656 237.964844 138.410156 238.828125 139.121094 C 239.695312 139.828125 240.542969 140.558594 241.371094 141.3125 C 242.199219 142.0625 243.011719 142.832031 243.800781 143.625 C 244.59375 144.414062 245.367188 145.222656 246.117188 146.054688 C 246.871094 146.882812 247.601562 147.730469 248.308594 148.59375 C 249.019531 149.457031 249.710938 150.339844 250.375 151.238281 C 251.042969 152.136719 251.6875 153.050781 252.308594 153.980469 C 252.929688 154.910156 253.53125 155.855469 254.105469 156.816406 C 254.679688 157.773438 255.230469 158.746094 255.761719 159.734375 C 256.289062 160.71875 256.789062 161.71875 257.269531 162.730469 C 257.75 163.742188 258.203125 164.761719 258.628906 165.796875 C 259.058594 166.828125 259.460938 167.871094 259.839844 168.925781 C 260.214844 169.980469 260.566406 171.039062 260.890625 172.109375 C 261.214844 173.179688 261.515625 174.257812 261.785156 175.34375 C 262.058594 176.429688 262.304688 177.519531 262.523438 178.617188 C 262.742188 179.714844 262.933594 180.816406 263.097656 181.921875 C 263.261719 183.027344 263.398438 184.136719 263.507812 185.25 C 263.617188 186.363281 263.699219 187.480469 263.753906 188.597656 C 263.808594 189.714844 263.835938 190.832031 263.835938 191.949219 Z M 263.835938 191.949219 " fill-opacity="1" fill-rule="nonzero"/><path fill="rgb(100%, 100%, 100%)" d="M 180.34375 209.933594 L 211.203125 192.160156 L 180.34375 174.386719 Z M 180.34375 209.933594 " fill-opacity="1" fill-rule="nonzero"/><g clip-path="url(#id2)"><path fill="rgb(100%, 100%, 100%)" d="M 192.160156 97.285156 C 139.769531 97.285156 97.285156 139.769531 97.285156 192.160156 C 97.285156 244.550781 139.769531 287.035156 192.160156 287.035156 C 244.550781 287.035156 287.035156 244.550781 287.035156 192.160156 C 287.035156 139.769531 244.550781 97.285156 192.160156 97.285156 Z M 251.441406 192.257812 C 251.441406 192.257812 251.441406 211.5 249.003906 220.777344 C 247.632812 225.855469 243.628906 229.859375 238.550781 231.226562 C 229.273438 233.667969 192.160156 233.667969 192.160156 233.667969 C 192.160156 233.667969 155.144531 233.667969 145.769531 231.128906 C 140.691406 229.761719 136.6875 225.757812 135.320312 220.679688 C 132.875 211.5 132.875 192.160156 132.875 192.160156 C 132.875 192.160156 132.875 172.921875 135.320312 163.644531 C 136.683594 158.5625 140.789062 154.460938 145.769531 153.09375 C 155.046875 150.652344 192.160156 150.652344 192.160156 150.652344 C 192.160156 150.652344 229.273438 150.652344 238.550781 153.191406 C 243.628906 154.558594 247.632812 158.5625 249.003906 163.644531 C 251.542969 172.921875 251.441406 192.257812 251.441406 192.257812 Z M 251.441406 192.257812 " fill-opacity="1" fill-rule="nonzero"/></g><g clip-path="url(#id3)"><path fill="rgb(100%, 100%, 100%)" d="M 66.609375 230.84375 C 46.980469 230.84375 30.984375 246.835938 30.984375 266.46875 C 30.984375 286.097656 46.980469 302.09375 66.609375 302.09375 C 86.238281 302.09375 102.234375 286.097656 102.234375 266.46875 C 102.234375 246.835938 86.238281 230.84375 66.609375 230.84375 Z M 66.609375 296.996094 C 49.757812 296.996094 36.078125 283.316406 36.078125 266.46875 C 36.078125 249.617188 49.757812 235.9375 66.609375 235.9375 C 83.460938 235.9375 97.140625 249.617188 97.140625 266.46875 C 97.140625 283.316406 83.460938 296.996094 66.609375 296.996094 Z M 66.609375 296.996094 " fill-opacity="1" fill-rule="nonzero"/></g><path fill="rgb(100%, 100%, 100%)" d="M 57.5625 271.132812 C 56.386719 270.351562 56.066406 268.78125 56.847656 267.605469 C 57.632812 266.429688 59.199219 266.109375 60.375 266.894531 L 64.046875 269.351562 L 64.046875 251.183594 C 64.046875 249.792969 65.183594 248.65625 66.574219 248.65625 C 67.964844 248.65625 69.105469 249.792969 69.105469 251.183594 L 69.105469 269.316406 L 72.773438 266.859375 C 73.949219 266.074219 75.515625 266.394531 76.300781 267.570312 C 77.082031 268.746094 76.761719 270.316406 75.585938 271.097656 L 68.035156 276.226562 C 68 276.265625 67.964844 276.265625 67.929688 276.265625 C 67.894531 276.300781 67.855469 276.335938 67.820312 276.335938 C 67.714844 276.40625 67.609375 276.40625 67.5 276.476562 C 67.429688 276.511719 67.359375 276.550781 67.285156 276.550781 C 67.074219 276.621094 66.859375 276.65625 66.644531 276.65625 C 66.433594 276.65625 66.183594 276.621094 65.96875 276.550781 C 65.898438 276.511719 65.828125 276.511719 65.753906 276.476562 C 65.613281 276.40625 65.46875 276.371094 65.328125 276.265625 C 65.292969 276.226562 65.257812 276.226562 65.222656 276.226562 Z M 57.5625 271.132812 " fill-opacity="1" fill-rule="nonzero"/><path fill="rgb(100%, 100%, 100%)" d="M 81.894531 281.75 C 81.894531 283.140625 80.753906 284.28125 79.363281 284.28125 L 53.890625 284.28125 C 52.503906 284.28125 51.363281 283.140625 51.363281 281.75 C 51.363281 280.359375 52.503906 279.222656 53.890625 279.222656 L 79.328125 279.222656 C 80.753906 279.183594 81.894531 280.324219 81.894531 281.75 Z M 81.894531 281.75 " fill-opacity="1" fill-rule="nonzero"/><g clip-path="url(#id4)"><path fill="rgb(100%, 100%, 100%)" d="M 323.589844 230.84375 C 303.960938 230.84375 287.964844 246.835938 287.964844 266.46875 C 287.964844 286.097656 303.960938 302.09375 323.589844 302.09375 C 343.21875 302.09375 359.214844 286.097656 359.214844 266.46875 C 359.214844 246.835938 343.21875 230.84375 323.589844 230.84375 Z M 323.589844 296.996094 C 306.742188 296.996094 293.0625 283.316406 293.0625 266.46875 C 293.0625 249.617188 306.742188 235.9375 323.589844 235.9375 C 340.441406 235.9375 354.121094 249.617188 354.121094 266.46875 C 354.121094 283.316406 340.441406 296.996094 323.589844 296.996094 Z M 323.589844 296.996094 " fill-opacity="1" fill-rule="nonzero"/></g><path fill="rgb(100%, 100%, 100%)" d="M 314.542969 271.132812 C 313.367188 270.351562 313.046875 268.78125 313.828125 267.605469 C 314.613281 266.429688 316.179688 266.109375 317.355469 266.894531 L 321.027344 269.351562 L 321.027344 251.183594 C 321.027344 249.792969 322.167969 248.65625 323.554688 248.65625 C 324.945312 248.65625 326.085938 249.792969 326.085938 251.183594 L 326.085938 269.316406 L 329.753906 266.859375 C 330.929688 266.074219 332.496094 266.394531 333.28125 267.570312 C 334.066406 268.746094 333.746094 270.316406 332.570312 271.097656 L 325.015625 276.226562 C 324.980469 276.265625 324.945312 276.265625 324.910156 276.265625 C 324.875 276.300781 324.839844 276.335938 324.800781 276.335938 C 324.695312 276.40625 324.589844 276.40625 324.480469 276.476562 C 324.410156 276.511719 324.339844 276.550781 324.269531 276.550781 C 324.054688 276.621094 323.839844 276.65625 323.625 276.65625 C 323.414062 276.65625 323.164062 276.621094 322.949219 276.550781 C 322.878906 276.511719 322.808594 276.511719 322.734375 276.476562 C 322.59375 276.40625 322.453125 276.371094 322.308594 276.265625 C 322.273438 276.226562 322.238281 276.226562 322.203125 276.226562 Z M 314.542969 271.132812 " fill-opacity="1" fill-rule="nonzero"/><path fill="rgb(100%, 100%, 100%)" d="M 338.875 281.75 C 338.875 283.140625 337.734375 284.28125 336.34375 284.28125 L 310.875 284.28125 C 309.484375 284.28125 308.34375 283.140625 308.34375 281.75 C 308.34375 280.359375 309.484375 279.222656 310.875 279.222656 L 336.308594 279.222656 C 337.734375 279.183594 338.875 280.324219 338.875 281.75 Z M 338.875 281.75 " fill-opacity="1" fill-rule="nonzero"/><g clip-path="url(#id5)"><path fill="rgb(100%, 100%, 100%)" d="M 194.625 7.1875 C 174.996094 7.1875 159 23.183594 159 42.8125 C 159 62.441406 174.996094 78.4375 194.625 78.4375 C 214.253906 78.4375 230.25 62.441406 230.25 42.8125 C 230.25 23.183594 214.253906 7.1875 194.625 7.1875 Z M 194.625 73.34375 C 177.777344 73.34375 164.097656 59.664062 164.097656 42.8125 C 164.097656 25.964844 177.777344 12.285156 194.625 12.285156 C 211.476562 12.285156 225.15625 25.964844 225.15625 42.8125 C 225.15625 59.664062 211.476562 73.34375 194.625 73.34375 Z M 194.625 73.34375 " fill-opacity="1" fill-rule="nonzero"/></g><path fill="rgb(100%, 100%, 100%)" d="M 185.578125 47.480469 C 184.402344 46.695312 184.082031 45.128906 184.863281 43.953125 C 185.648438 42.777344 187.214844 42.457031 188.390625 43.242188 L 192.0625 45.699219 L 192.0625 27.53125 C 192.0625 26.140625 193.203125 25 194.589844 25 C 195.980469 25 197.121094 26.140625 197.121094 27.53125 L 197.121094 45.664062 L 200.789062 43.207031 C 201.964844 42.421875 203.53125 42.742188 204.316406 43.917969 C 205.101562 45.09375 204.78125 46.660156 203.605469 47.445312 L 196.050781 52.574219 C 196.015625 52.609375 195.980469 52.609375 195.945312 52.609375 C 195.910156 52.644531 195.875 52.683594 195.835938 52.683594 C 195.730469 52.753906 195.625 52.753906 195.515625 52.824219 C 195.445312 52.859375 195.375 52.894531 195.304688 52.894531 C 195.089844 52.96875 194.875 53.003906 194.660156 53.003906 C 194.449219 53.003906 194.199219 52.96875 193.984375 52.894531 C 193.914062 52.859375 193.84375 52.859375 193.769531 52.824219 C 193.628906 52.753906 193.488281 52.71875 193.34375 52.609375 C 193.308594 52.574219 193.273438 52.574219 193.238281 52.574219 Z M 185.578125 47.480469 " fill-opacity="1" fill-rule="nonzero"/><path fill="rgb(100%, 100%, 100%)" d="M 209.910156 58.097656 C 209.910156 59.488281 208.769531 60.625 207.378906 60.625 L 181.910156 60.625 C 180.519531 60.625 179.378906 59.488281 179.378906 58.097656 C 179.378906 56.707031 180.519531 55.566406 181.910156 55.566406 L 207.34375 55.566406 C 208.769531 55.53125 209.910156 56.671875 209.910156 58.097656 Z M 209.910156 58.097656 " fill-opacity="1" fill-rule="nonzero"/><path fill="rgb(100%, 100%, 100%)" d="M 62.234375 123.921875 L 73.699219 117.320312 L 62.234375 110.714844 Z M 62.234375 123.921875 " fill-opacity="1" fill-rule="nonzero"/><g clip-path="url(#id6)"><path fill="rgb(100%, 100%, 100%)" d="M 66.625 82.070312 C 47.160156 82.070312 31.375 97.855469 31.375 117.320312 C 31.375 136.785156 47.160156 152.570312 66.625 152.570312 C 86.089844 152.570312 101.875 136.785156 101.875 117.320312 C 101.875 97.855469 86.089844 82.070312 66.625 82.070312 Z M 88.648438 117.355469 C 88.648438 117.355469 88.648438 124.503906 87.742188 127.949219 C 87.234375 129.835938 85.746094 131.324219 83.859375 131.832031 C 80.414062 132.742188 66.625 132.742188 66.625 132.742188 C 66.625 132.742188 52.871094 132.742188 49.386719 131.796875 C 47.5 131.289062 46.011719 129.800781 45.503906 127.914062 C 44.597656 124.503906 44.597656 117.320312 44.597656 117.320312 C 44.597656 117.320312 44.597656 110.171875 45.503906 106.722656 C 46.011719 104.835938 47.535156 103.3125 49.386719 102.804688 C 52.835938 101.898438 66.625 101.898438 66.625 101.898438 C 66.625 101.898438 80.414062 101.898438 83.859375 102.839844 C 85.746094 103.347656 87.234375 104.835938 87.742188 106.722656 C 88.6875 110.171875 88.648438 117.355469 88.648438 117.355469 Z M 88.648438 117.355469 " fill-opacity="1" fill-rule="nonzero"/></g><path fill="rgb(100%, 100%, 100%)" d="M 319.601562 123.921875 L 331.070312 117.320312 L 319.601562 110.714844 Z M 319.601562 123.921875 " fill-opacity="1" fill-rule="nonzero"/><g clip-path="url(#id7)"><path fill="rgb(100%, 100%, 100%)" d="M 323.992188 82.070312 C 304.527344 82.070312 288.742188 97.855469 288.742188 117.320312 C 288.742188 136.785156 304.527344 152.570312 323.992188 152.570312 C 343.457031 152.570312 359.242188 136.785156 359.242188 117.320312 C 359.242188 97.855469 343.457031 82.070312 323.992188 82.070312 Z M 346.019531 117.355469 C 346.019531 117.355469 346.019531 124.503906 345.113281 127.949219 C 344.605469 129.835938 343.117188 131.324219 341.230469 131.832031 C 337.78125 132.742188 323.992188 132.742188 323.992188 132.742188 C 323.992188 132.742188 310.242188 132.742188 306.757812 131.796875 C 304.871094 131.289062 303.382812 129.800781 302.875 127.914062 C 301.964844 124.503906 301.964844 117.320312 301.964844 117.320312 C 301.964844 117.320312 301.964844 110.171875 302.875 106.722656 C 303.382812 104.835938 304.90625 103.3125 306.757812 102.804688 C 310.203125 101.898438 323.992188 101.898438 323.992188 101.898438 C 323.992188 101.898438 337.78125 101.898438 341.230469 102.839844 C 343.117188 103.347656 344.605469 104.835938 345.113281 106.722656 C 346.054688 110.171875 346.019531 117.355469 346.019531 117.355469 Z M 346.019531 117.355469 " fill-opacity="1" fill-rule="nonzero"/></g><path fill="rgb(100%, 100%, 100%)" d="M 190.636719 347.109375 L 202.105469 340.507812 L 190.636719 333.902344 Z M 190.636719 347.109375 " fill-opacity="1" fill-rule="nonzero"/><g clip-path="url(#id8)"><path fill="rgb(100%, 100%, 100%)" d="M 195.027344 305.257812 C 175.5625 305.257812 159.777344 321.042969 159.777344 340.507812 C 159.777344 359.972656 175.5625 375.757812 195.027344 375.757812 C 214.492188 375.757812 230.277344 359.972656 230.277344 340.507812 C 230.277344 321.042969 214.492188 305.257812 195.027344 305.257812 Z M 217.054688 340.542969 C 217.054688 340.542969 217.054688 347.691406 216.148438 351.140625 C 215.640625 353.027344 214.152344 354.511719 212.265625 355.019531 C 208.816406 355.929688 195.027344 355.929688 195.027344 355.929688 C 195.027344 355.929688 181.277344 355.929688 177.792969 354.984375 C 175.90625 354.476562 174.417969 352.988281 173.910156 351.101562 C 173 347.691406 173 340.507812 173 340.507812 C 173 340.507812 173 333.359375 173.910156 329.910156 C 174.417969 328.023438 175.941406 326.5 177.792969 325.992188 C 181.238281 325.085938 195.027344 325.085938 195.027344 325.085938 C 195.027344 325.085938 208.816406 325.085938 212.265625 326.027344 C 214.152344 326.535156 215.640625 328.023438 216.148438 329.910156 C 217.089844 333.359375 217.054688 340.542969 217.054688 340.542969 Z M 217.054688 340.542969 " fill-opacity="1" fill-rule="nonzero"/></g></svg>