<svg xmlns="http://www.w3.org/2000/svg" xmlns:xlink="http://www.w3.org/1999/xlink" width="900" zoomAndPan="magnify" viewBox="0 0 675 449.999984" height="600" preserveAspectRatio="xMidYMid meet" version="1.0"><defs><g><g id="id1"/><g id="id2"/><g id="id3"/></g><clipPath id="id4"><path d="M 34 69.335938 L 303 69.335938 L 303 100.085938 L 34 100.085938 Z M 34 69.335938 " clip-rule="nonzero"/></clipPath><clipPath id="id5"><path d="M 16.617188 10.738281 L 51.117188 10.738281 L 51.117188 45.238281 L 16.617188 45.238281 Z M 16.617188 10.738281 " clip-rule="nonzero"/></clipPath><clipPath id="id6"><path d="M 118.664062 119.03125 L 219.164062 119.03125 L 219.164062 190 L 118.664062 190 Z M 118.664062 119.03125 " clip-rule="nonzero"/></clipPath><clipPath id="id7"><path d="M 355.929688 10.738281 L 390.429688 10.738281 L 390.429688 45.238281 L 355.929688 45.238281 Z M 355.929688 10.738281 " clip-rule="nonzero"/></clipPath><clipPath id="id8"><path d="M 526.550781 163.238281 L 547.585938 163.238281 L 547.585938 191.386719 L 526.550781 191.386719 Z M 526.550781 163.238281 " clip-rule="nonzero"/></clipPath><clipPath id="id9"><path d="M 465.097656 141.136719 L 539 141.136719 L 539 176 L 465.097656 176 Z M 465.097656 141.136719 " clip-rule="nonzero"/></clipPath><clipPath id="id10"><path d="M 16.617188 237.5625 L 51.117188 237.5625 L 51.117188 272.0625 L 16.617188 272.0625 Z M 16.617188 237.5625 " clip-rule="nonzero"/></clipPath><clipPath id="id11"><path d="M 355.707031 237.5625 L 390.207031 237.5625 L 390.207031 272.0625 L 355.707031 272.0625 Z M 355.707031 237.5625 " clip-rule="nonzero"/></clipPath><clipPath id="id12"><path d="M 206 376 L 237 376 L 237 408 L 206 408 Z M 206 376 " clip-rule="nonzero"/></clipPath><clipPath id="id13"><path d="M 187.007812 368.140625 L 223.78125 355.152344 L 241.015625 403.949219 L 204.242188 416.9375 Z M 187.007812 368.140625 " clip-rule="nonzero"/></clipPath><clipPath id="id14"><path d="M 187.007812 368.140625 L 223.78125 355.152344 L 241.015625 403.949219 L 204.242188 416.9375 Z M 187.007812 368.140625 " clip-rule="nonzero"/></clipPath><clipPath id="id15"><path d="M 201 362 L 206 362 L 206 371 L 201 371 Z M 201 362 " clip-rule="nonzero"/></clipPath><clipPath id="id16"><path d="M 187.007812 368.140625 L 223.78125 355.152344 L 241.015625 403.949219 L 204.242188 416.9375 Z M 187.007812 368.140625 " clip-rule="nonzero"/></clipPath><clipPath id="id17"><path d="M 187.007812 368.140625 L 223.78125 355.152344 L 241.015625 403.949219 L 204.242188 416.9375 Z M 187.007812 368.140625 " clip-rule="nonzero"/></clipPath><clipPath id="id18"><path d="M 192 379 L 201 379 L 201 385 L 192 385 Z M 192 379 " clip-rule="nonzero"/></clipPath><clipPath id="id19"><path d="M 187.007812 368.140625 L 223.78125 355.152344 L 241.015625 403.949219 L 204.242188 416.9375 Z M 187.007812 368.140625 " clip-rule="nonzero"/></clipPath><clipPath id="id20"><path d="M 187.007812 368.140625 L 223.78125 355.152344 L 241.015625 403.949219 L 204.242188 416.9375 Z M 187.007812 368.140625 " clip-rule="nonzero"/></clipPath><clipPath id="id21"><path d="M 214 371 L 224 371 L 224 377 L 214 377 Z M 214 371 " clip-rule="nonzero"/></clipPath><clipPath id="id22"><path d="M 187.007812 368.140625 L 223.78125 355.152344 L 241.015625 403.949219 L 204.242188 416.9375 Z M 187.007812 368.140625 " clip-rule="nonzero"/></clipPath><clipPath id="id23"><path d="M 187.007812 368.140625 L 223.78125 355.152344 L 241.015625 403.949219 L 204.242188 416.9375 Z M 187.007812 368.140625 " clip-rule="nonzero"/></clipPath><clipPath id="id24"><path d="M 192 370 L 201 370 L 201 376 L 192 376 Z M 192 370 " clip-rule="nonzero"/></clipPath><clipPath id="id25"><path d="M 187.007812 368.140625 L 223.78125 355.152344 L 241.015625 403.949219 L 204.242188 416.9375 Z M 187.007812 368.140625 " clip-rule="nonzero"/></clipPath><clipPath id="id26"><path d="M 187.007812 368.140625 L 223.78125 355.152344 L 241.015625 403.949219 L 204.242188 416.9375 Z M 187.007812 368.140625 " clip-rule="nonzero"/></clipPath><clipPath id="id27"><path d="M 200 384 L 206 384 L 206 393 L 200 393 Z M 200 384 " clip-rule="nonzero"/></clipPath><clipPath id="id28"><path d="M 187.007812 368.140625 L 223.78125 355.152344 L 241.015625 403.949219 L 204.242188 416.9375 Z M 187.007812 368.140625 " clip-rule="nonzero"/></clipPath><clipPath id="id29"><path d="M 187.007812 368.140625 L 223.78125 355.152344 L 241.015625 403.949219 L 204.242188 416.9375 Z M 187.007812 368.140625 " clip-rule="nonzero"/></clipPath><clipPath id="id30"><path d="M 210 363 L 216 363 L 216 372 L 210 372 Z M 210 363 " clip-rule="nonzero"/></clipPath><clipPath id="id31"><path d="M 187.007812 368.140625 L 223.78125 355.152344 L 241.015625 403.949219 L 204.242188 416.9375 Z M 187.007812 368.140625 " clip-rule="nonzero"/></clipPath><clipPath id="id32"><path d="M 187.007812 368.140625 L 223.78125 355.152344 L 241.015625 403.949219 L 204.242188 416.9375 Z M 187.007812 368.140625 " clip-rule="nonzero"/></clipPath><clipPath id="id33"><path d="M 410.671875 274.457031 L 519.421875 274.457031 L 519.421875 383.207031 L 410.671875 383.207031 Z M 410.671875 274.457031 " clip-rule="nonzero"/></clipPath><clipPath id="id34"><path d="M 534.617188 281.1875 L 629.867188 281.1875 L 629.867188 376.4375 L 534.617188 376.4375 Z M 534.617188 281.1875 " clip-rule="nonzero"/></clipPath></defs><rect x="-67.5" width="810" fill="rgb(100%, 100%, 100%)" y="-44.999998" height="539.99998" fill-opacity="1"/><rect x="-67.5" width="810" fill="rgb(100%, 100%, 100%)" y="-44.999998" height="539.99998" fill-opacity="1"/><rect x="-67.5" width="810" fill="rgb(100%, 100%, 100%)" y="-44.999998" height="539.99998" fill-opacity="1"/><path fill="rgb(100%, 87.059021%, 34.899902%)" d="M 0 0 L 337.5 0 L 337.5 225 L 0 225 L 0 0 " fill-opacity="1" fill-rule="nonzero"/><path fill="rgb(54.899597%, 32.159424%, 100%)" d="M 0 225 L 337.5 225 L 337.5 450 L 0 450 L 0 225 " fill-opacity="1" fill-rule="nonzero"/><path fill="rgb(0%, 76.078796%, 79.60968%)" d="M 337.5 225 L 675 225 L 675 450 L 337.5 450 L 337.5 225 " fill-opacity="1" fill-rule="nonzero"/><path fill="rgb(32.159424%, 44.309998%, 100%)" d="M 337.5 0 L 675 0 L 675 225 L 337.5 225 L 337.5 0 " fill-opacity="1" fill-rule="nonzero"/><g clip-path="url(#id4)"><path fill="rgb(58.039856%, 58.039856%, 58.039856%)" d="M 36.222656 69.335938 L 301.273438 69.335938 C 302.214844 69.335938 302.988281 70.109375 302.988281 71.054688 L 302.988281 98.34375 C 302.988281 99.289062 302.214844 100.0625 301.273438 100.0625 L 36.222656 100.0625 C 35.28125 100.0625 34.511719 99.289062 34.511719 98.34375 L 34.511719 71.054688 C 34.511719 70.109375 35.28125 69.335938 36.222656 69.335938 Z M 36.222656 69.335938 " fill-opacity="1" fill-rule="evenodd"/></g><path fill="rgb(100%, 100%, 100%)" d="M 302.492188 70.386719 C 302.5 70.445312 302.503906 70.507812 302.503906 70.570312 L 302.503906 97.859375 C 302.503906 98.804688 301.734375 99.574219 300.789062 99.574219 L 35.742188 99.574219 C 35.683594 99.574219 35.625 99.574219 35.570312 99.566406 L 35.570312 71.761719 C 35.570312 71.003906 36.1875 70.386719 36.941406 70.386719 Z M 302.492188 70.386719 " fill-opacity="1" fill-rule="evenodd"/><path fill="rgb(100%, 100%, 100%)" d="M 288.957031 88.3125 C 285.550781 88.3125 282.769531 85.53125 282.769531 82.117188 C 282.769531 78.703125 285.550781 75.917969 288.957031 75.917969 C 292.367188 75.917969 295.144531 78.703125 295.144531 82.117188 C 295.144531 85.53125 292.367188 88.3125 288.957031 88.3125 Z M 288.957031 88.3125 " fill-opacity="1" fill-rule="evenodd"/><path fill="rgb(62.748718%, 62.748718%, 62.748718%)" d="M 293.632812 76.105469 C 296.941406 78.699219 297.523438 83.484375 294.933594 86.796875 C 292.566406 89.824219 288.371094 90.570312 285.144531 88.695312 L 279.433594 96 C 279.070312 96.464844 278.394531 96.546875 277.933594 96.183594 C 277.472656 95.820312 277.390625 95.144531 277.75 94.679688 L 283.460938 87.378906 C 280.875 84.6875 280.59375 80.429688 282.957031 77.402344 C 285.546875 74.09375 290.328125 73.511719 293.632812 76.105469 Z M 284.515625 78.625 C 282.597656 81.074219 283.027344 84.617188 285.476562 86.539062 C 287.921875 88.457031 291.460938 88.027344 293.375 85.574219 C 295.292969 83.125 294.863281 79.582031 292.414062 77.664062 C 289.96875 75.742188 286.429688 76.175781 284.515625 78.625 Z M 284.515625 78.625 " fill-opacity="1" fill-rule="evenodd"/><path fill="rgb(0%, 0%, 0%)" d="M 42.355469 74.644531 L 43.332031 74.644531 L 43.332031 94.753906 L 42.355469 94.753906 Z M 42.355469 74.644531 " fill-opacity="1" fill-rule="evenodd"/><g clip-path="url(#id5)"><path fill="rgb(100%, 100%, 100%)" d="M 33.867188 10.738281 C 24.34375 10.738281 16.617188 18.460938 16.617188 27.988281 C 16.617188 37.511719 24.34375 45.238281 33.867188 45.238281 C 43.394531 45.238281 51.117188 37.511719 51.117188 27.988281 C 51.117188 18.460938 43.394531 10.738281 33.867188 10.738281 Z M 33.867188 10.738281 " fill-opacity="1" fill-rule="nonzero"/></g><path fill="rgb(0%, 0%, 0%)" d="M 36.003906 20.847656 C 35.789062 20.570312 35.496094 20.429688 35.132812 20.429688 C 34.8125 20.429688 34.597656 20.492188 34.480469 20.609375 C 34.363281 20.734375 34.117188 21.054688 33.738281 21.589844 C 33.355469 22.117188 32.921875 22.597656 32.429688 23.03125 C 31.9375 23.460938 31.28125 23.863281 30.460938 24.253906 C 29.914062 24.511719 29.53125 24.71875 29.308594 24.886719 C 29.09375 25.046875 28.980469 25.304688 28.980469 25.652344 C 28.980469 25.949219 29.09375 26.214844 29.316406 26.445312 C 29.535156 26.671875 29.789062 26.785156 30.074219 26.785156 C 30.671875 26.785156 31.832031 26.125 33.554688 24.796875 L 33.554688 34.0625 C 33.554688 34.605469 33.679688 35.015625 33.929688 35.292969 C 34.179688 35.574219 34.515625 35.710938 34.933594 35.710938 C 35.863281 35.710938 36.328125 35.03125 36.328125 33.667969 L 36.328125 22 C 36.328125 21.515625 36.21875 21.125 36.003906 20.847656 " fill-opacity="1" fill-rule="nonzero"/><g clip-path="url(#id6)"><path fill="rgb(100%, 100%, 100%)" d="M 118.664062 119.257812 L 219.164062 119.257812 L 219.164062 189.972656 L 118.664062 189.972656 Z M 122.851562 185.8125 L 214.976562 185.8125 L 214.976562 123.417969 L 122.851562 123.417969 Z M 156.351562 140.054688 L 185.664062 154.613281 L 156.351562 169.171875 Z M 156.351562 140.054688 " fill-opacity="1" fill-rule="evenodd"/></g><path fill="rgb(92.939758%, 92.939758%, 92.939758%)" d="M 385.335938 71.644531 L 627.164062 71.644531 L 627.164062 115.523438 L 385.335938 115.523438 L 385.335938 71.644531 " fill-opacity="1" fill-rule="nonzero"/><path fill="rgb(100%, 100%, 100%)" d="M 624.34375 112.714844 L 629.984375 112.714844 L 629.984375 118.335938 L 624.34375 118.335938 L 624.34375 112.714844 M 382.515625 74.457031 L 388.15625 74.457031 L 388.15625 112.714844 L 382.515625 112.714844 L 382.515625 74.457031 M 382.515625 112.714844 L 388.15625 112.714844 L 388.15625 118.335938 L 382.515625 118.335938 L 382.515625 112.714844 M 624.34375 74.457031 L 629.984375 74.457031 L 629.984375 112.714844 L 624.34375 112.714844 L 624.34375 74.457031 M 388.15625 112.714844 L 624.34375 112.714844 L 624.34375 118.335938 L 388.15625 118.335938 L 388.15625 112.714844 M 624.34375 68.835938 L 629.984375 68.835938 L 629.984375 74.457031 L 624.34375 74.457031 L 624.34375 68.835938 M 382.515625 68.835938 L 388.15625 68.835938 L 388.15625 74.457031 L 382.515625 74.457031 L 382.515625 68.835938 M 388.15625 68.835938 L 624.34375 68.835938 L 624.34375 74.457031 L 388.15625 74.457031 L 388.15625 68.835938 " fill-opacity="1" fill-rule="nonzero"/><g clip-path="url(#id7)"><path fill="rgb(100%, 100%, 100%)" d="M 373.179688 10.738281 C 363.652344 10.738281 355.929688 18.460938 355.929688 27.988281 C 355.929688 37.511719 363.652344 45.238281 373.179688 45.238281 C 382.703125 45.238281 390.429688 37.511719 390.429688 27.988281 C 390.429688 18.460938 382.703125 10.738281 373.179688 10.738281 Z M 373.179688 10.738281 " fill-opacity="1" fill-rule="nonzero"/></g><path fill="rgb(0%, 0%, 0%)" d="M 378.164062 33.375 C 377.886719 33.160156 377.484375 33.050781 376.953125 33.050781 L 371.636719 33.050781 C 371.804688 32.792969 371.96875 32.570312 372.136719 32.386719 C 372.519531 31.929688 373.222656 31.277344 374.234375 30.441406 C 375.257812 29.605469 375.988281 28.996094 376.417969 28.605469 C 376.851562 28.214844 377.28125 27.675781 377.699219 26.984375 C 378.117188 26.296875 378.324219 25.53125 378.324219 24.691406 C 378.324219 24.15625 378.226562 23.632812 378.027344 23.140625 C 377.824219 22.640625 377.546875 22.203125 377.183594 21.820312 C 376.824219 21.4375 376.40625 21.136719 375.933594 20.921875 C 375.203125 20.597656 374.3125 20.4375 373.277344 20.4375 C 372.414062 20.4375 371.664062 20.5625 371.023438 20.820312 C 370.382812 21.074219 369.855469 21.410156 369.433594 21.820312 C 369.015625 22.238281 368.703125 22.695312 368.492188 23.203125 C 368.285156 23.710938 368.179688 24.203125 368.179688 24.671875 C 368.179688 25.058594 368.292969 25.367188 368.515625 25.589844 C 368.738281 25.8125 369.023438 25.921875 369.363281 25.921875 C 369.75 25.921875 370.042969 25.796875 370.246094 25.554688 C 370.445312 25.308594 370.628906 24.960938 370.789062 24.503906 C 370.949219 24.050781 371.058594 23.773438 371.128906 23.667969 C 371.636719 22.890625 372.339844 22.5 373.226562 22.5 C 373.652344 22.5 374.035156 22.597656 374.394531 22.785156 C 374.75 22.972656 375.035156 23.246094 375.246094 23.585938 C 375.453125 23.925781 375.558594 24.316406 375.558594 24.753906 C 375.558594 25.15625 375.460938 25.5625 375.265625 25.984375 C 375.070312 26.410156 374.792969 26.8125 374.417969 27.207031 C 374.046875 27.605469 373.582031 28 373.027344 28.398438 C 372.714844 28.605469 372.191406 29.050781 371.46875 29.71875 C 370.738281 30.386719 369.925781 31.191406 369.023438 32.125 C 368.804688 32.355469 368.605469 32.671875 368.421875 33.078125 C 368.242188 33.480469 368.144531 33.808594 368.144531 34.050781 C 368.144531 34.433594 368.292969 34.757812 368.578125 35.042969 C 368.863281 35.328125 369.257812 35.46875 369.765625 35.46875 L 377.261719 35.46875 C 377.707031 35.46875 378.046875 35.351562 378.261719 35.121094 C 378.484375 34.890625 378.597656 34.605469 378.597656 34.273438 C 378.582031 33.890625 378.441406 33.589844 378.164062 33.375 " fill-opacity="1" fill-rule="nonzero"/><g clip-path="url(#id8)"><path fill="rgb(100%, 100%, 100%)" d="M 547.148438 184.914062 C 545.09375 181.597656 543.035156 178.277344 540.976562 174.957031 C 540.761719 174.609375 540.546875 174.261719 540.328125 173.914062 C 541.953125 172.886719 543.578125 171.859375 545.203125 170.832031 C 545.558594 170.609375 545.453125 170.160156 545.097656 170.019531 C 543.203125 169.257812 541.308594 168.5 539.414062 167.742188 C 536.398438 166.535156 533.378906 165.328125 530.363281 164.121094 C 529.671875 163.84375 528.984375 163.566406 528.292969 163.292969 C 528.003906 163.175781 527.738281 163.464844 527.71875 163.722656 C 527.589844 165.761719 527.457031 167.800781 527.324219 169.84375 C 527.117188 173.082031 526.910156 176.320312 526.699219 179.558594 C 526.652344 180.308594 526.601562 181.058594 526.554688 181.808594 C 526.53125 182.140625 526.957031 182.371094 527.238281 182.191406 C 528.925781 181.125 530.617188 180.054688 532.308594 178.988281 C 533.851562 181.476562 535.394531 183.964844 536.9375 186.457031 C 537.640625 187.589844 538.335938 188.722656 539.042969 189.851562 C 539.558594 190.671875 540.339844 191.246094 541.328125 191.367188 C 542.347656 191.488281 543.125 191.027344 543.933594 190.515625 C 544.679688 190.042969 545.4375 189.585938 546.171875 189.101562 C 547.578125 188.167969 547.996094 186.355469 547.148438 184.914062 " fill-opacity="1" fill-rule="nonzero"/></g><path fill="rgb(100%, 100%, 100%)" d="M 497.21875 158.722656 C 497.191406 158.707031 497.164062 158.6875 497.132812 158.671875 C 497.101562 158.65625 497.074219 158.640625 497.042969 158.632812 C 496.230469 158.269531 495.363281 158.273438 494.484375 158.273438 C 494.238281 158.273438 494.03125 158.476562 494.03125 158.71875 C 494.03125 159.746094 494.03125 160.773438 494.03125 161.800781 C 494.03125 162.050781 494.238281 162.234375 494.484375 162.246094 C 495.570312 162.300781 497.039062 162.253906 497.757812 161.304688 C 498.410156 160.445312 498.078125 159.277344 497.21875 158.722656 " fill-opacity="1" fill-rule="nonzero"/><path fill="rgb(100%, 100%, 100%)" d="M 494.484375 156.832031 C 495.34375 156.832031 496.277344 156.929688 497.011719 156.402344 C 497.023438 156.390625 497.035156 156.382812 497.046875 156.375 C 497.066406 156.359375 497.085938 156.347656 497.105469 156.332031 C 497.660156 155.851562 497.847656 154.933594 497.429688 154.308594 C 496.84375 153.429688 495.402344 153.46875 494.484375 153.53125 C 494.238281 153.546875 494.03125 153.722656 494.03125 153.976562 C 494.03125 154.78125 494.03125 155.582031 494.03125 156.386719 C 494.03125 156.628906 494.238281 156.832031 494.484375 156.832031 " fill-opacity="1" fill-rule="nonzero"/><g clip-path="url(#id9)"><path fill="rgb(100%, 100%, 100%)" d="M 473.699219 161.199219 C 474.042969 161.464844 474.394531 161.71875 474.796875 161.898438 C 475.617188 162.261719 476.636719 162.40625 477.503906 162.109375 C 478.726562 161.6875 479.109375 160.230469 478.214844 159.316406 C 477.597656 158.683594 476.703125 158.503906 475.917969 158.152344 C 475.203125 157.835938 474.488281 157.402344 474.019531 156.769531 C 473.023438 155.425781 473.445312 153.484375 474.832031 152.566406 C 475.753906 151.953125 476.949219 151.835938 478.027344 152.015625 C 478.734375 152.132812 479.335938 152.410156 479.925781 152.769531 C 479.699219 153.214844 479.472656 153.660156 479.25 154.105469 C 478.5 153.730469 477.714844 153.425781 476.851562 153.492188 C 475.898438 153.5625 474.800781 154.207031 475.070312 155.289062 C 475.34375 156.386719 476.671875 156.726562 477.59375 157.085938 C 478.636719 157.496094 479.707031 158.097656 480.097656 159.191406 C 480.574219 160.523438 480.214844 161.972656 479.136719 162.898438 C 478.15625 163.6875 476.847656 163.921875 475.609375 163.75 C 474.644531 163.617188 473.820312 163.222656 473.027344 162.71875 C 473.25 162.210938 473.476562 161.703125 473.699219 161.199219 Z M 481.8125 155.515625 C 481.8125 154.398438 481.8125 153.277344 481.8125 152.160156 C 482.339844 152.160156 482.863281 152.160156 483.390625 152.160156 C 483.390625 153.46875 483.390625 154.777344 483.390625 156.085938 C 483.390625 156.867188 483.390625 157.644531 483.390625 158.425781 C 483.390625 159.316406 483.433594 160.234375 483.839844 161.046875 C 484.554688 162.476562 486.832031 162.816406 487.96875 161.652344 C 489.136719 160.457031 488.847656 158.375 488.847656 156.835938 C 488.847656 155.277344 488.847656 153.71875 488.847656 152.160156 C 489.371094 152.160156 489.898438 152.160156 490.425781 152.160156 C 490.425781 154.339844 490.425781 156.519531 490.425781 158.699219 C 490.414062 160.53125 489.96875 162.636719 488.078125 163.445312 C 486.894531 163.949219 485.304688 163.949219 484.125 163.429688 C 482.261719 162.609375 481.820312 160.519531 481.8125 158.699219 C 481.808594 157.636719 481.8125 156.578125 481.8125 155.515625 Z M 510.417969 157.261719 C 510.386719 156.75 509.707031 156.671875 509.527344 157.144531 C 508.710938 159.292969 507.894531 161.4375 507.074219 163.585938 C 506.730469 163.585938 506.382812 163.585938 506.035156 163.585938 C 505.21875 161.4375 504.402344 159.292969 503.582031 157.144531 C 503.40625 156.675781 502.726562 156.746094 502.691406 157.261719 C 502.554688 159.371094 502.414062 161.476562 502.277344 163.585938 C 501.769531 163.585938 501.265625 163.585938 500.761719 163.585938 C 500.992188 160.136719 501.222656 156.6875 501.453125 153.242188 C 501.476562 152.878906 501.5 152.519531 501.523438 152.160156 C 502.054688 152.160156 502.585938 152.160156 503.117188 152.160156 C 503.984375 154.484375 504.855469 156.8125 505.726562 159.136719 C 505.855469 159.488281 505.988281 159.839844 506.117188 160.1875 C 506.277344 160.609375 506.835938 160.609375 506.992188 160.1875 C 507.902344 157.753906 508.816406 155.320312 509.726562 152.882812 C 509.816406 152.640625 509.90625 152.398438 509.996094 152.160156 C 510.527344 152.160156 511.058594 152.160156 511.585938 152.160156 C 511.816406 155.605469 512.050781 159.054688 512.28125 162.503906 C 512.304688 162.863281 512.328125 163.222656 512.351562 163.585938 C 511.847656 163.585938 511.34375 163.585938 510.835938 163.585938 C 510.699219 161.476562 510.558594 159.371094 510.417969 157.261719 Z M 494.855469 163.726562 C 494.042969 163.71875 493.257812 163.578125 492.472656 163.402344 C 492.472656 160.109375 492.472656 156.816406 492.472656 153.523438 C 492.472656 153.148438 492.472656 152.769531 492.472656 152.394531 C 493.484375 152.148438 494.492188 151.980469 495.539062 152.027344 C 496.476562 152.066406 497.507812 152.246094 498.253906 152.847656 C 499.527344 153.875 499.484375 155.96875 498.402344 157.097656 C 498.25 157.257812 498.207031 157.570312 498.402344 157.726562 C 499.648438 158.710938 500.003906 160.535156 499.242188 161.925781 C 498.410156 163.445312 496.445312 163.71875 494.855469 163.726562 Z M 513.929688 152.160156 C 514.449219 152.160156 514.964844 152.160156 515.484375 152.160156 C 515.484375 155.601562 515.484375 159.046875 515.484375 162.488281 C 515.484375 162.855469 515.484375 163.21875 515.484375 163.585938 C 514.964844 163.585938 514.449219 163.585938 513.929688 163.585938 C 513.929688 160.140625 513.929688 156.699219 513.929688 153.253906 C 513.929688 152.890625 513.929688 152.523438 513.929688 152.160156 Z M 521.964844 154.070312 C 521.964844 156.976562 521.964844 159.886719 521.964844 162.792969 C 521.964844 163.058594 521.964844 163.320312 521.964844 163.585938 C 521.445312 163.585938 520.929688 163.585938 520.410156 163.585938 C 520.410156 160.824219 520.410156 158.066406 520.410156 155.304688 C 520.410156 154.894531 520.410156 154.480469 520.410156 154.070312 C 520.410156 153.828125 520.203125 153.625 519.957031 153.625 C 518.808594 153.625 517.664062 153.625 516.515625 153.625 C 516.515625 153.136719 516.515625 152.648438 516.515625 152.160156 C 519.347656 152.160156 522.183594 152.160156 525.015625 152.160156 C 525.28125 152.160156 525.546875 152.160156 525.816406 152.160156 C 525.816406 152.648438 525.816406 153.136719 525.816406 153.625 C 524.683594 153.625 523.550781 153.625 522.417969 153.625 C 522.175781 153.625 521.964844 153.828125 521.964844 154.070312 Z M 527.007812 161.757812 C 530.199219 163.035156 533.386719 164.308594 536.574219 165.585938 C 537.058594 165.78125 537.546875 165.976562 538.03125 166.167969 C 538.3125 166.28125 538.605469 166.003906 538.605469 165.742188 C 538.605469 161.378906 538.605469 157.015625 538.605469 152.65625 C 538.605469 152.046875 538.605469 151.441406 538.605469 150.835938 C 538.574219 146.101562 535.023438 141.863281 530.171875 141.269531 C 529.105469 141.136719 528 141.199219 526.929688 141.199219 C 524.835938 141.199219 522.746094 141.199219 520.65625 141.199219 C 517.660156 141.199219 514.667969 141.199219 511.671875 141.199219 C 508.234375 141.199219 504.796875 141.199219 501.359375 141.199219 C 497.941406 141.199219 494.527344 141.199219 491.109375 141.199219 C 488.183594 141.199219 485.253906 141.199219 482.328125 141.199219 C 480.347656 141.199219 478.367188 141.199219 476.386719 141.199219 C 474.984375 141.199219 473.597656 141.152344 472.226562 141.519531 C 467.960938 142.65625 465.117188 146.644531 465.109375 150.914062 C 465.105469 153.375 465.109375 155.832031 465.109375 158.289062 C 465.109375 160.867188 465.105469 163.445312 465.109375 166.019531 C 465.109375 170.136719 467.628906 173.960938 471.652344 175.332031 C 473.183594 175.851562 474.726562 175.824219 476.3125 175.824219 C 478.339844 175.824219 480.371094 175.824219 482.398438 175.824219 C 485.398438 175.824219 488.398438 175.824219 491.402344 175.824219 C 494.851562 175.824219 498.304688 175.824219 501.757812 175.824219 C 505.128906 175.824219 508.5 175.824219 511.871094 175.824219 C 514.632812 175.824219 517.394531 175.824219 520.15625 175.824219 C 521.78125 175.824219 523.40625 175.824219 525.035156 175.824219 C 525.25 175.824219 525.464844 175.824219 525.679688 175.824219 C 525.933594 175.824219 526.117188 175.621094 526.132812 175.378906 C 526.398438 171.214844 526.667969 167.046875 526.9375 162.882812 C 526.960938 162.507812 526.984375 162.132812 527.007812 161.757812 " fill-opacity="1" fill-rule="nonzero"/></g><g clip-path="url(#id10)"><path fill="rgb(100%, 100%, 100%)" d="M 33.867188 237.5625 C 24.34375 237.5625 16.617188 245.289062 16.617188 254.8125 C 16.617188 264.339844 24.34375 272.0625 33.867188 272.0625 C 43.394531 272.0625 51.117188 264.339844 51.117188 254.8125 C 51.117188 245.289062 43.394531 237.5625 33.867188 237.5625 Z M 33.867188 237.5625 " fill-opacity="1" fill-rule="nonzero"/></g><path fill="rgb(0%, 0%, 0%)" d="M 38.847656 256.316406 C 38.667969 255.871094 38.386719 255.46875 38.027344 255.097656 C 37.664062 254.730469 37.21875 254.402344 36.683594 254.117188 C 37.234375 253.660156 37.65625 253.179688 37.949219 252.699219 C 38.242188 252.214844 38.394531 251.628906 38.394531 250.957031 C 38.394531 250.441406 38.289062 249.953125 38.089844 249.507812 C 37.886719 249.0625 37.582031 248.667969 37.183594 248.328125 C 36.78125 247.988281 36.316406 247.730469 35.765625 247.546875 C 35.222656 247.367188 34.621094 247.277344 33.964844 247.277344 C 33.214844 247.277344 32.527344 247.382812 31.921875 247.597656 C 31.316406 247.8125 30.800781 248.097656 30.390625 248.445312 C 29.980469 248.800781 29.667969 249.167969 29.453125 249.558594 C 29.238281 249.945312 29.132812 250.324219 29.132812 250.671875 C 29.132812 251.039062 29.246094 251.332031 29.472656 251.554688 C 29.703125 251.777344 29.953125 251.886719 30.226562 251.886719 C 30.453125 251.886719 30.65625 251.84375 30.835938 251.761719 C 31.011719 251.679688 31.136719 251.566406 31.207031 251.429688 C 31.324219 251.164062 31.449219 250.878906 31.589844 250.578125 C 31.726562 250.28125 31.875 250.039062 32.03125 249.851562 C 32.1875 249.660156 32.402344 249.507812 32.671875 249.390625 C 32.945312 249.273438 33.285156 249.21875 33.695312 249.21875 C 34.304688 249.21875 34.792969 249.40625 35.148438 249.78125 C 35.507812 250.15625 35.691406 250.609375 35.691406 251.128906 C 35.691406 251.816406 35.46875 252.339844 35.015625 252.707031 C 34.5625 253.074219 34.027344 253.257812 33.402344 253.257812 L 32.984375 253.257812 C 32.503906 253.257812 32.136719 253.355469 31.894531 253.554688 C 31.652344 253.757812 31.527344 254.019531 31.527344 254.347656 C 31.527344 254.683594 31.628906 254.9375 31.832031 255.128906 C 32.03125 255.316406 32.324219 255.40625 32.699219 255.40625 C 32.785156 255.40625 32.964844 255.390625 33.25 255.363281 C 33.535156 255.335938 33.742188 255.320312 33.882812 255.320312 C 34.652344 255.320312 35.257812 255.542969 35.695312 255.996094 C 36.128906 256.449219 36.351562 257.074219 36.351562 257.867188 C 36.351562 258.402344 36.226562 258.875 35.96875 259.285156 C 35.710938 259.695312 35.390625 260 35 260.210938 C 34.613281 260.417969 34.203125 260.523438 33.785156 260.523438 C 33.054688 260.523438 32.484375 260.292969 32.082031 259.835938 C 31.679688 259.375 31.296875 258.671875 30.949219 257.734375 C 30.894531 257.582031 30.78125 257.441406 30.601562 257.332031 C 30.425781 257.21875 30.238281 257.164062 30.050781 257.164062 C 29.667969 257.164062 29.355469 257.28125 29.097656 257.527344 C 28.839844 257.769531 28.714844 258.082031 28.714844 258.476562 C 28.714844 258.785156 28.820312 259.171875 29.035156 259.640625 C 29.25 260.105469 29.566406 260.5625 29.980469 261.003906 C 30.398438 261.441406 30.925781 261.800781 31.574219 262.09375 C 32.222656 262.386719 32.949219 262.53125 33.765625 262.53125 C 34.5625 262.53125 35.292969 262.40625 35.960938 262.148438 C 36.628906 261.890625 37.191406 261.542969 37.679688 261.09375 C 38.160156 260.640625 38.527344 260.125 38.769531 259.550781 C 39.019531 258.972656 39.140625 258.375 39.140625 257.753906 C 39.117188 257.242188 39.027344 256.761719 38.847656 256.316406 " fill-opacity="1" fill-rule="nonzero"/><g clip-path="url(#id11)"><path fill="rgb(100%, 100%, 100%)" d="M 372.957031 237.5625 C 363.429688 237.5625 355.707031 245.289062 355.707031 254.8125 C 355.707031 264.339844 363.429688 272.0625 372.957031 272.0625 C 382.480469 272.0625 390.207031 264.339844 390.207031 254.8125 C 390.207031 245.289062 382.480469 237.5625 372.957031 237.5625 Z M 372.957031 237.5625 " fill-opacity="1" fill-rule="nonzero"/></g><path fill="rgb(0%, 0%, 0%)" d="M 378.300781 257.023438 C 377.988281 256.878906 377.566406 256.808594 377.042969 256.808594 L 376.605469 256.808594 L 376.605469 248.933594 C 376.605469 247.75 376.089844 247.160156 375.054688 247.160156 C 374.734375 247.160156 374.464844 247.261719 374.234375 247.480469 C 374.003906 247.695312 373.71875 248.035156 373.367188 248.515625 L 367.96875 255.738281 C 367.824219 255.933594 367.691406 256.101562 367.59375 256.238281 C 367.488281 256.378906 367.394531 256.515625 367.300781 256.664062 C 367.207031 256.808594 367.136719 256.949219 367.085938 257.082031 C 367.039062 257.210938 367.015625 257.34375 367.015625 257.46875 C 367.015625 257.96875 367.175781 258.367188 367.503906 258.660156 C 367.824219 258.949219 368.3125 259.097656 368.957031 259.097656 L 374.066406 259.097656 L 374.066406 260.988281 C 374.066406 261.496094 374.1875 261.886719 374.421875 262.140625 C 374.660156 262.398438 374.964844 262.53125 375.347656 262.53125 C 375.734375 262.53125 376.042969 262.40625 376.273438 262.148438 C 376.5 261.890625 376.621094 261.503906 376.621094 260.980469 L 376.621094 259.089844 L 377.238281 259.089844 C 377.753906 259.089844 378.140625 259 378.398438 258.820312 C 378.65625 258.636719 378.789062 258.351562 378.789062 257.957031 C 378.773438 257.484375 378.613281 257.171875 378.300781 257.023438 M 374.0625 256.808594 L 369.679688 256.808594 L 374.0625 250.894531 Z M 374.0625 256.808594 " fill-opacity="1" fill-rule="nonzero"/><path fill="rgb(100%, 34.118652%, 34.118652%)" d="M 212.617188 287.648438 L 125.207031 287.648438 C 122.539062 287.648438 120.339844 285.460938 120.339844 282.804688 L 120.339844 261.308594 C 120.339844 258.65625 122.539062 256.464844 125.207031 256.464844 L 212.550781 256.464844 C 215.21875 256.464844 217.417969 258.65625 217.417969 261.308594 L 217.417969 282.738281 C 217.488281 285.460938 215.285156 287.648438 212.617188 287.648438 " fill-opacity="1" fill-rule="nonzero"/><path fill="rgb(100%, 100%, 100%)" d="M 212.617188 257.925781 C 214.484375 257.925781 216.019531 259.453125 216.019531 261.308594 L 216.019531 282.804688 C 216.019531 284.664062 214.484375 286.1875 212.617188 286.1875 L 125.207031 286.1875 C 123.339844 286.1875 121.804688 284.664062 121.804688 282.804688 L 121.804688 261.308594 C 121.804688 259.453125 123.339844 257.925781 125.207031 257.925781 L 212.617188 257.925781 M 212.617188 254.808594 L 125.207031 254.808594 C 121.605469 254.808594 118.671875 257.726562 118.671875 261.308594 L 118.671875 282.804688 C 118.671875 286.386719 121.605469 289.308594 125.207031 289.308594 L 212.617188 289.308594 C 216.21875 289.308594 219.152344 286.386719 219.152344 282.804688 L 219.152344 261.308594 C 219.152344 257.726562 216.21875 254.808594 212.617188 254.808594 " fill-opacity="1" fill-rule="nonzero"/><path fill="rgb(100%, 34.118652%, 34.118652%)" d="M 212.617188 335.773438 L 125.207031 335.773438 C 122.539062 335.773438 120.339844 333.585938 120.339844 330.933594 L 120.339844 309.4375 C 120.339844 306.78125 122.539062 304.59375 125.207031 304.59375 L 212.550781 304.59375 C 215.21875 304.59375 217.417969 306.78125 217.417969 309.4375 L 217.417969 330.867188 C 217.488281 333.585938 215.285156 335.773438 212.617188 335.773438 " fill-opacity="1" fill-rule="nonzero"/><path fill="rgb(100%, 100%, 100%)" d="M 212.617188 306.050781 C 214.484375 306.050781 216.019531 307.578125 216.019531 309.4375 L 216.019531 330.933594 C 216.019531 332.789062 214.484375 334.316406 212.617188 334.316406 L 125.207031 334.316406 C 123.339844 334.316406 121.804688 332.789062 121.804688 330.933594 L 121.804688 309.4375 C 121.804688 307.578125 123.339844 306.050781 125.207031 306.050781 L 212.617188 306.050781 M 212.617188 302.933594 L 125.207031 302.933594 C 121.605469 302.933594 118.671875 305.851562 118.671875 309.4375 L 118.671875 330.933594 C 118.671875 334.515625 121.605469 337.433594 125.207031 337.433594 L 212.617188 337.433594 C 216.21875 337.433594 219.152344 334.515625 219.152344 330.933594 L 219.152344 309.4375 C 219.152344 305.851562 216.21875 302.933594 212.617188 302.933594 " fill-opacity="1" fill-rule="nonzero"/><path fill="rgb(100%, 34.118652%, 34.118652%)" d="M 213.621094 384.445312 L 126.207031 384.445312 C 123.539062 384.445312 121.339844 382.253906 121.339844 379.601562 L 121.339844 358.105469 C 121.339844 355.449219 123.539062 353.261719 126.207031 353.261719 L 213.554688 353.261719 C 216.21875 353.261719 218.421875 355.449219 218.421875 358.105469 L 218.421875 379.535156 C 218.488281 382.253906 216.285156 384.445312 213.621094 384.445312 " fill-opacity="1" fill-rule="nonzero"/><path fill="rgb(100%, 100%, 100%)" d="M 213.621094 354.722656 C 215.488281 354.722656 217.019531 356.246094 217.019531 358.105469 L 217.019531 379.601562 C 217.019531 381.457031 215.488281 382.984375 213.621094 382.984375 L 126.207031 382.984375 C 124.339844 382.984375 122.804688 381.457031 122.804688 379.601562 L 122.804688 358.105469 C 122.804688 356.246094 124.339844 354.722656 126.207031 354.722656 L 213.621094 354.722656 M 213.621094 351.601562 L 126.207031 351.601562 C 122.605469 351.601562 119.671875 354.523438 119.671875 358.105469 L 119.671875 379.601562 C 119.671875 383.183594 122.605469 386.101562 126.207031 386.101562 L 213.621094 386.101562 C 217.21875 386.101562 220.152344 383.183594 220.152344 379.601562 L 220.152344 358.105469 C 220.152344 354.523438 217.21875 351.601562 213.621094 351.601562 " fill-opacity="1" fill-rule="nonzero"/><g clip-path="url(#id12)"><g clip-path="url(#id13)"><g clip-path="url(#id14)"><path fill="rgb(100%, 100%, 100%)" d="M 230.800781 407.558594 C 230.441406 407.683594 230.027344 407.617188 229.722656 407.351562 L 222.332031 400.84375 L 218.570312 406.710938 C 218.351562 407.058594 217.945312 407.25 217.535156 407.203125 C 217.125 407.15625 216.777344 406.878906 216.636719 406.492188 L 206.695312 378.339844 C 206.550781 377.929688 206.667969 377.46875 206.992188 377.179688 C 207.320312 376.886719 207.789062 376.820312 208.183594 377.003906 L 235.796875 390.121094 C 236.191406 390.308594 236.433594 390.714844 236.410156 391.148438 C 236.382812 391.585938 236.097656 391.964844 235.6875 392.113281 L 229.25 394.386719 L 236.214844 400.515625 C 236.433594 400.710938 236.566406 400.988281 236.578125 401.28125 C 236.589844 401.574219 236.480469 401.863281 236.273438 402.074219 L 231.222656 407.289062 C 231.101562 407.414062 230.957031 407.503906 230.800781 407.558594 Z M 221.746094 398.179688 C 221.8125 398.15625 221.882812 398.136719 221.957031 398.128906 C 222.269531 398.082031 222.589844 398.179688 222.824219 398.386719 L 230.386719 405.050781 L 233.933594 401.390625 L 226.4375 394.792969 C 226.152344 394.539062 226.019531 394.152344 226.097656 393.78125 C 226.171875 393.402344 226.4375 393.09375 226.800781 392.964844 L 232.503906 390.949219 L 209.605469 380.074219 L 217.945312 403.683594 L 221.191406 398.617188 C 221.320312 398.414062 221.519531 398.257812 221.746094 398.179688 Z M 221.746094 398.179688 " fill-opacity="1" fill-rule="nonzero"/></g></g></g><g clip-path="url(#id15)"><g clip-path="url(#id16)"><g clip-path="url(#id17)"><path fill="rgb(100%, 100%, 100%)" d="M 205.199219 370.859375 C 204.636719 371.058594 204.019531 370.765625 203.820312 370.203125 L 201.664062 364.105469 C 201.46875 363.542969 201.765625 362.925781 202.328125 362.726562 C 202.890625 362.527344 203.511719 362.824219 203.707031 363.382812 L 205.863281 369.484375 C 206.0625 370.042969 205.765625 370.660156 205.199219 370.859375 Z M 205.199219 370.859375 " fill-opacity="1" fill-rule="nonzero"/></g></g></g><g clip-path="url(#id18)"><g clip-path="url(#id19)"><g clip-path="url(#id20)"><path fill="rgb(100%, 100%, 100%)" d="M 199.902344 381.878906 L 193.773438 384.042969 C 193.210938 384.242188 192.589844 383.949219 192.390625 383.386719 C 192.195312 382.828125 192.492188 382.210938 193.054688 382.011719 L 199.183594 379.847656 C 199.746094 379.648438 200.367188 379.941406 200.5625 380.503906 C 200.761719 381.0625 200.464844 381.679688 199.902344 381.878906 Z M 199.902344 381.878906 " fill-opacity="1" fill-rule="nonzero"/></g></g></g><g clip-path="url(#id21)"><g clip-path="url(#id22)"><g clip-path="url(#id23)"><path fill="rgb(100%, 100%, 100%)" d="M 222.375 373.941406 L 216.246094 376.105469 C 215.683594 376.304688 215.0625 376.011719 214.863281 375.449219 C 214.667969 374.890625 214.964844 374.273438 215.527344 374.074219 L 221.65625 371.910156 C 222.21875 371.710938 222.839844 372.003906 223.035156 372.5625 C 223.234375 373.125 222.9375 373.742188 222.375 373.941406 Z M 222.375 373.941406 " fill-opacity="1" fill-rule="nonzero"/></g></g></g><g clip-path="url(#id24)"><g clip-path="url(#id25)"><g clip-path="url(#id26)"><path fill="rgb(100%, 100%, 100%)" d="M 200.265625 375.28125 C 200.003906 375.375 199.707031 375.367188 199.4375 375.242188 L 193.578125 372.460938 C 193.039062 372.203125 192.8125 371.558594 193.070312 371.023438 C 193.328125 370.484375 193.976562 370.257812 194.515625 370.511719 L 200.375 373.292969 C 200.910156 373.546875 201.140625 374.191406 200.882812 374.730469 C 200.753906 375 200.527344 375.191406 200.265625 375.28125 Z M 200.265625 375.28125 " fill-opacity="1" fill-rule="nonzero"/></g></g></g><g clip-path="url(#id27)"><g clip-path="url(#id28)"><g clip-path="url(#id29)"><path fill="rgb(100%, 100%, 100%)" d="M 201.515625 392.628906 C 201.253906 392.722656 200.957031 392.714844 200.6875 392.585938 C 200.148438 392.332031 199.921875 391.6875 200.179688 391.148438 L 202.992188 385.308594 C 203.25 384.769531 203.898438 384.539062 204.4375 384.796875 C 204.976562 385.050781 205.203125 385.695312 204.945312 386.234375 L 202.132812 392.078125 C 202.003906 392.34375 201.777344 392.535156 201.515625 392.628906 Z M 201.515625 392.628906 " fill-opacity="1" fill-rule="nonzero"/></g></g></g><g clip-path="url(#id30)"><g clip-path="url(#id31)"><g clip-path="url(#id32)"><path fill="rgb(100%, 100%, 100%)" d="M 211.820312 371.199219 C 211.558594 371.292969 211.261719 371.285156 210.992188 371.160156 C 210.453125 370.902344 210.226562 370.257812 210.484375 369.722656 L 213.296875 363.878906 C 213.554688 363.339844 214.203125 363.109375 214.742188 363.367188 C 215.28125 363.625 215.507812 364.265625 215.25 364.804688 L 212.4375 370.648438 C 212.308594 370.917969 212.082031 371.109375 211.820312 371.199219 Z M 211.820312 371.199219 " fill-opacity="1" fill-rule="nonzero"/></g></g></g><g clip-path="url(#id33)"><path fill="rgb(100%, 79.998779%, 30.198669%)" d="M 519.421875 328.832031 C 519.421875 358.863281 495.078125 383.207031 465.046875 383.207031 C 435.019531 383.207031 410.671875 358.863281 410.671875 328.832031 C 410.671875 298.800781 435.019531 274.457031 465.046875 274.457031 C 495.078125 274.457031 519.421875 298.800781 519.421875 328.832031 " fill-opacity="1" fill-rule="nonzero"/></g><path fill="rgb(16.079712%, 18.429565%, 19.999695%)" d="M 414.417969 307.738281 C 415.144531 308.460938 418.761719 310.632812 419.484375 312.800781 C 420.210938 314.964844 421.660156 327.25 426.003906 330.867188 C 430.484375 334.589844 447.382812 333.207031 450.617188 331.59375 C 457.859375 327.984375 458.746094 317.90625 460.027344 312.800781 C 460.75 309.910156 465.09375 309.910156 465.09375 309.910156 C 465.09375 309.910156 469.4375 309.910156 470.164062 312.796875 C 471.441406 317.90625 472.335938 327.984375 479.570312 331.589844 C 482.808594 333.207031 499.710938 334.59375 504.195312 330.871094 C 508.53125 327.253906 509.980469 314.96875 510.703125 312.800781 C 511.425781 310.632812 515.050781 308.464844 515.769531 307.742188 C 516.5 307.019531 516.5 304.128906 515.769531 303.40625 C 514.324219 301.960938 497.242188 300.675781 478.847656 302.683594 C 475.175781 303.085938 473.78125 304.128906 465.089844 304.128906 C 456.40625 304.128906 455.003906 303.082031 451.335938 302.683594 C 432.953125 300.671875 415.867188 301.957031 414.417969 303.402344 C 413.695312 304.125 413.695312 307.019531 414.417969 307.738281 Z M 414.417969 307.738281 " fill-opacity="1" fill-rule="evenodd"/><path fill="rgb(39.99939%, 27.059937%, 0%)" d="M 493.246094 345.835938 C 492.710938 345.347656 491.90625 345.320312 491.328125 345.75 C 491.210938 345.835938 479.480469 354.507812 465.046875 354.507812 C 450.652344 354.507812 438.882812 345.835938 438.765625 345.75 C 438.191406 345.320312 437.386719 345.355469 436.847656 345.835938 C 436.3125 346.320312 436.191406 347.117188 436.566406 347.734375 C 436.953125 348.382812 446.28125 363.570312 465.046875 363.570312 C 483.8125 363.570312 493.144531 348.382812 493.53125 347.734375 C 493.902344 347.113281 493.785156 346.320312 493.246094 345.835938 Z M 493.246094 345.835938 " fill-opacity="1" fill-rule="nonzero"/><g clip-path="url(#id34)"><path fill="rgb(100%, 100%, 100%)" d="M 582.242188 281.1875 C 556 281.1875 534.617188 302.570312 534.617188 328.8125 C 534.617188 355.054688 556 376.4375 582.242188 376.4375 C 608.480469 376.4375 629.867188 355.054688 629.867188 328.8125 C 629.867188 302.570312 608.480469 281.1875 582.242188 281.1875 Z M 582.242188 369.628906 C 559.714844 369.628906 541.425781 351.339844 541.425781 328.8125 C 541.425781 306.285156 559.714844 287.996094 582.242188 287.996094 C 604.765625 287.996094 623.054688 306.285156 623.054688 328.8125 C 623.054688 351.339844 604.765625 369.628906 582.242188 369.628906 Z M 582.242188 369.628906 " fill-opacity="1" fill-rule="nonzero"/></g><path fill="rgb(100%, 100%, 100%)" d="M 570.144531 335.050781 C 568.570312 334.003906 568.144531 331.90625 569.191406 330.335938 C 570.238281 328.765625 572.335938 328.335938 573.90625 329.382812 L 578.8125 332.671875 L 578.8125 308.382812 C 578.8125 306.523438 580.335938 305 582.191406 305 C 584.050781 305 585.574219 306.523438 585.574219 308.382812 L 585.574219 332.621094 L 590.480469 329.335938 C 592.050781 328.289062 594.148438 328.71875 595.195312 330.289062 C 596.242188 331.859375 595.8125 333.957031 594.242188 335.003906 L 584.144531 341.863281 C 584.097656 341.910156 584.050781 341.910156 584.003906 341.910156 C 583.953125 341.957031 583.90625 342.003906 583.859375 342.003906 C 583.714844 342.101562 583.574219 342.101562 583.429688 342.195312 C 583.335938 342.242188 583.242188 342.289062 583.144531 342.289062 C 582.859375 342.386719 582.574219 342.433594 582.289062 342.433594 C 582.003906 342.433594 581.667969 342.386719 581.382812 342.289062 C 581.289062 342.242188 581.191406 342.242188 581.097656 342.195312 C 580.90625 342.101562 580.714844 342.050781 580.527344 341.910156 C 580.476562 341.863281 580.429688 341.863281 580.382812 341.863281 Z M 570.144531 335.050781 " fill-opacity="1" fill-rule="nonzero"/><path fill="rgb(100%, 100%, 100%)" d="M 602.671875 349.242188 C 602.671875 351.101562 601.148438 352.625 599.289062 352.625 L 565.238281 352.625 C 563.378906 352.625 561.855469 351.101562 561.855469 349.242188 C 561.855469 347.386719 563.378906 345.863281 565.238281 345.863281 L 599.242188 345.863281 C 601.148438 345.816406 602.671875 347.339844 602.671875 349.242188 Z M 602.671875 349.242188 " fill-opacity="1" fill-rule="nonzero"/><g fill="rgb(32.939148%, 32.939148%, 32.939148%)" fill-opacity="1"><g transform="translate(67.598137, 90.693727)"><g><path d="M 4.71875 -6.34375 L 6.96875 -10.78125 L 9.421875 -10.78125 L 5.84375 -4.203125 L 5.84375 0 L 3.578125 0 L 3.578125 -4.125 L 0 -10.78125 L 2.484375 -10.78125 Z M 4.71875 -6.34375 "/></g></g></g><g fill="rgb(32.939148%, 32.939148%, 32.939148%)" fill-opacity="1"><g transform="translate(77.024303, 90.693727)"><g><path d="M 2.96875 -4.140625 C 2.96875 -3.328125 3.101562 -2.707031 3.375 -2.28125 C 3.644531 -1.863281 4.082031 -1.65625 4.6875 -1.65625 C 5.28125 -1.65625 5.707031 -1.863281 5.96875 -2.28125 C 6.238281 -2.695312 6.375 -3.316406 6.375 -4.140625 C 6.375 -4.953125 6.238281 -5.5625 5.96875 -5.96875 C 5.707031 -6.382812 5.273438 -6.59375 4.671875 -6.59375 C 4.066406 -6.59375 3.628906 -6.390625 3.359375 -5.984375 C 3.097656 -5.578125 2.96875 -4.960938 2.96875 -4.140625 Z M 8.671875 -4.140625 C 8.671875 -2.796875 8.316406 -1.742188 7.609375 -0.984375 C 6.898438 -0.234375 5.914062 0.140625 4.65625 0.140625 C 3.863281 0.140625 3.164062 -0.03125 2.5625 -0.375 C 1.957031 -0.71875 1.488281 -1.210938 1.15625 -1.859375 C 0.832031 -2.515625 0.671875 -3.273438 0.671875 -4.140625 C 0.671875 -5.484375 1.019531 -6.53125 1.71875 -7.28125 C 2.425781 -8.03125 3.421875 -8.40625 4.703125 -8.40625 C 5.492188 -8.40625 6.191406 -8.234375 6.796875 -7.890625 C 7.398438 -7.546875 7.863281 -7.050781 8.1875 -6.40625 C 8.507812 -5.757812 8.671875 -5.003906 8.671875 -4.140625 Z M 8.671875 -4.140625 "/></g></g></g><g fill="rgb(32.939148%, 32.939148%, 32.939148%)" fill-opacity="1"><g transform="translate(86.376712, 90.693727)"><g><path d="M 7.03125 0 L 6.71875 -1.0625 L 6.609375 -1.0625 C 6.359375 -0.675781 6.007812 -0.378906 5.5625 -0.171875 C 5.125 0.0351562 4.625 0.140625 4.0625 0.140625 C 3.09375 0.140625 2.363281 -0.113281 1.875 -0.625 C 1.382812 -1.144531 1.140625 -1.894531 1.140625 -2.875 L 1.140625 -8.25 L 3.390625 -8.25 L 3.390625 -3.4375 C 3.390625 -2.832031 3.492188 -2.378906 3.703125 -2.078125 C 3.910156 -1.785156 4.25 -1.640625 4.71875 -1.640625 C 5.34375 -1.640625 5.796875 -1.847656 6.078125 -2.265625 C 6.359375 -2.691406 6.5 -3.394531 6.5 -4.375 L 6.5 -8.25 L 8.75 -8.25 L 8.75 0 Z M 7.03125 0 "/></g></g></g><g fill="rgb(32.939148%, 32.939148%, 32.939148%)" fill-opacity="1"><g transform="translate(96.304426, 90.693727)"><g><path d="M 5.515625 0 L 3.234375 0 L 3.234375 -8.875 L 0.296875 -8.875 L 0.296875 -10.78125 L 8.453125 -10.78125 L 8.453125 -8.875 L 5.515625 -8.875 Z M 5.515625 0 "/></g></g></g><g fill="rgb(32.939148%, 32.939148%, 32.939148%)" fill-opacity="1"><g transform="translate(105.052026, 90.693727)"><g><path d="M 7.03125 0 L 6.71875 -1.0625 L 6.609375 -1.0625 C 6.359375 -0.675781 6.007812 -0.378906 5.5625 -0.171875 C 5.125 0.0351562 4.625 0.140625 4.0625 0.140625 C 3.09375 0.140625 2.363281 -0.113281 1.875 -0.625 C 1.382812 -1.144531 1.140625 -1.894531 1.140625 -2.875 L 1.140625 -8.25 L 3.390625 -8.25 L 3.390625 -3.4375 C 3.390625 -2.832031 3.492188 -2.378906 3.703125 -2.078125 C 3.910156 -1.785156 4.25 -1.640625 4.71875 -1.640625 C 5.34375 -1.640625 5.796875 -1.847656 6.078125 -2.265625 C 6.359375 -2.691406 6.5 -3.394531 6.5 -4.375 L 6.5 -8.25 L 8.75 -8.25 L 8.75 0 Z M 7.03125 0 "/></g></g></g><g fill="rgb(32.939148%, 32.939148%, 32.939148%)" fill-opacity="1"><g transform="translate(114.979741, 90.693727)"><g><path d="M 5.765625 -8.40625 C 6.742188 -8.40625 7.503906 -8.023438 8.046875 -7.265625 C 8.597656 -6.503906 8.875 -5.460938 8.875 -4.140625 C 8.875 -2.773438 8.585938 -1.71875 8.015625 -0.96875 C 7.453125 -0.226562 6.679688 0.140625 5.703125 0.140625 C 4.734375 0.140625 3.976562 -0.207031 3.4375 -0.90625 L 3.28125 -0.90625 L 2.90625 0 L 1.1875 0 L 1.1875 -11.484375 L 3.4375 -11.484375 L 3.4375 -8.8125 C 3.4375 -8.46875 3.40625 -7.921875 3.34375 -7.171875 L 3.4375 -7.171875 C 3.957031 -7.992188 4.734375 -8.40625 5.765625 -8.40625 Z M 5.046875 -6.609375 C 4.492188 -6.609375 4.085938 -6.4375 3.828125 -6.09375 C 3.578125 -5.75 3.445312 -5.179688 3.4375 -4.390625 L 3.4375 -4.15625 C 3.4375 -3.269531 3.566406 -2.632812 3.828125 -2.25 C 4.085938 -1.863281 4.503906 -1.671875 5.078125 -1.671875 C 5.535156 -1.671875 5.898438 -1.882812 6.171875 -2.3125 C 6.453125 -2.738281 6.59375 -3.359375 6.59375 -4.171875 C 6.59375 -4.984375 6.453125 -5.59375 6.171875 -6 C 5.898438 -6.40625 5.523438 -6.609375 5.046875 -6.609375 Z M 5.046875 -6.609375 "/></g></g></g><g fill="rgb(32.939148%, 32.939148%, 32.939148%)" fill-opacity="1"><g transform="translate(124.538669, 90.693727)"><g><path d="M 4.59375 -6.796875 C 4.113281 -6.796875 3.738281 -6.644531 3.46875 -6.34375 C 3.195312 -6.039062 3.046875 -5.613281 3.015625 -5.0625 L 6.171875 -5.0625 C 6.160156 -5.613281 6.015625 -6.039062 5.734375 -6.34375 C 5.453125 -6.644531 5.070312 -6.796875 4.59375 -6.796875 Z M 4.90625 0.140625 C 3.582031 0.140625 2.546875 -0.222656 1.796875 -0.953125 C 1.046875 -1.679688 0.671875 -2.71875 0.671875 -4.0625 C 0.671875 -5.445312 1.015625 -6.515625 1.703125 -7.265625 C 2.398438 -8.023438 3.359375 -8.40625 4.578125 -8.40625 C 5.742188 -8.40625 6.648438 -8.070312 7.296875 -7.40625 C 7.953125 -6.738281 8.28125 -5.820312 8.28125 -4.65625 L 8.28125 -3.5625 L 2.953125 -3.5625 C 2.984375 -2.925781 3.175781 -2.425781 3.53125 -2.0625 C 3.882812 -1.707031 4.378906 -1.53125 5.015625 -1.53125 C 5.515625 -1.53125 5.984375 -1.582031 6.421875 -1.6875 C 6.867188 -1.789062 7.332031 -1.953125 7.8125 -2.171875 L 7.8125 -0.4375 C 7.414062 -0.238281 6.992188 -0.09375 6.546875 0 C 6.097656 0.09375 5.550781 0.140625 4.90625 0.140625 Z M 4.90625 0.140625 "/></g></g></g><g fill="rgb(32.939148%, 32.939148%, 32.939148%)" fill-opacity="1"><g transform="translate(133.463286, 90.693727)"><g><path d="M 0.859375 -1.0625 C 0.859375 -1.46875 0.96875 -1.773438 1.1875 -1.984375 C 1.414062 -2.203125 1.738281 -2.3125 2.15625 -2.3125 C 2.570312 -2.3125 2.890625 -2.203125 3.109375 -1.984375 C 3.335938 -1.765625 3.453125 -1.457031 3.453125 -1.0625 C 3.453125 -0.664062 3.335938 -0.351562 3.109375 -0.125 C 2.878906 0.09375 2.5625 0.203125 2.15625 0.203125 C 1.75 0.203125 1.429688 0.09375 1.203125 -0.125 C 0.972656 -0.34375 0.859375 -0.65625 0.859375 -1.0625 Z M 0.859375 -1.0625 "/></g></g></g><g fill="rgb(32.939148%, 32.939148%, 32.939148%)" fill-opacity="1"><g transform="translate(137.770705, 90.693727)"><g><path d="M 4.53125 0.140625 C 1.957031 0.140625 0.671875 -1.265625 0.671875 -4.078125 C 0.671875 -5.484375 1.019531 -6.554688 1.71875 -7.296875 C 2.425781 -8.035156 3.429688 -8.40625 4.734375 -8.40625 C 5.679688 -8.40625 6.535156 -8.21875 7.296875 -7.84375 L 6.625 -6.09375 C 6.269531 -6.238281 5.941406 -6.359375 5.640625 -6.453125 C 5.335938 -6.546875 5.035156 -6.59375 4.734375 -6.59375 C 3.554688 -6.59375 2.96875 -5.757812 2.96875 -4.09375 C 2.96875 -2.476562 3.554688 -1.671875 4.734375 -1.671875 C 5.160156 -1.671875 5.554688 -1.726562 5.921875 -1.84375 C 6.296875 -1.957031 6.664062 -2.140625 7.03125 -2.390625 L 7.03125 -0.46875 C 6.675781 -0.238281 6.3125 -0.0820312 5.9375 0 C 5.5625 0.09375 5.09375 0.140625 4.53125 0.140625 Z M 4.53125 0.140625 "/></g></g></g><g fill="rgb(32.939148%, 32.939148%, 32.939148%)" fill-opacity="1"><g transform="translate(145.53734, 90.693727)"><g><path d="M 2.96875 -4.140625 C 2.96875 -3.328125 3.101562 -2.707031 3.375 -2.28125 C 3.644531 -1.863281 4.082031 -1.65625 4.6875 -1.65625 C 5.28125 -1.65625 5.707031 -1.863281 5.96875 -2.28125 C 6.238281 -2.695312 6.375 -3.316406 6.375 -4.140625 C 6.375 -4.953125 6.238281 -5.5625 5.96875 -5.96875 C 5.707031 -6.382812 5.273438 -6.59375 4.671875 -6.59375 C 4.066406 -6.59375 3.628906 -6.390625 3.359375 -5.984375 C 3.097656 -5.578125 2.96875 -4.960938 2.96875 -4.140625 Z M 8.671875 -4.140625 C 8.671875 -2.796875 8.316406 -1.742188 7.609375 -0.984375 C 6.898438 -0.234375 5.914062 0.140625 4.65625 0.140625 C 3.863281 0.140625 3.164062 -0.03125 2.5625 -0.375 C 1.957031 -0.71875 1.488281 -1.210938 1.15625 -1.859375 C 0.832031 -2.515625 0.671875 -3.273438 0.671875 -4.140625 C 0.671875 -5.484375 1.019531 -6.53125 1.71875 -7.28125 C 2.425781 -8.03125 3.421875 -8.40625 4.703125 -8.40625 C 5.492188 -8.40625 6.191406 -8.234375 6.796875 -7.890625 C 7.398438 -7.546875 7.863281 -7.050781 8.1875 -6.40625 C 8.507812 -5.757812 8.671875 -5.003906 8.671875 -4.140625 Z M 8.671875 -4.140625 "/></g></g></g><g fill="rgb(32.939148%, 32.939148%, 32.939148%)" fill-opacity="1"><g transform="translate(154.889749, 90.693727)"><g><path d="M 8.5625 0 L 6.3125 0 L 6.3125 -4.8125 C 6.3125 -5.40625 6.210938 -5.851562 6.015625 -6.15625 C 5.816406 -6.457031 5.503906 -6.609375 5.078125 -6.609375 C 4.503906 -6.609375 4.085938 -6.394531 3.828125 -5.96875 C 3.566406 -5.539062 3.4375 -4.84375 3.4375 -3.875 L 3.4375 0 L 1.1875 0 L 1.1875 -8.25 L 2.90625 -8.25 L 3.203125 -7.1875 L 3.328125 -7.1875 C 3.546875 -7.570312 3.863281 -7.867188 4.28125 -8.078125 C 4.695312 -8.296875 5.175781 -8.40625 5.71875 -8.40625 C 6.957031 -8.40625 7.796875 -8 8.234375 -7.1875 L 8.4375 -7.1875 C 8.65625 -7.570312 8.976562 -7.867188 9.40625 -8.078125 C 9.84375 -8.296875 10.332031 -8.40625 10.875 -8.40625 C 11.800781 -8.40625 12.503906 -8.164062 12.984375 -7.6875 C 13.460938 -7.207031 13.703125 -6.4375 13.703125 -5.375 L 13.703125 0 L 11.453125 0 L 11.453125 -4.8125 C 11.453125 -5.40625 11.351562 -5.851562 11.15625 -6.15625 C 10.957031 -6.457031 10.640625 -6.609375 10.203125 -6.609375 C 9.660156 -6.609375 9.25 -6.410156 8.96875 -6.015625 C 8.695312 -5.617188 8.5625 -4.992188 8.5625 -4.140625 Z M 8.5625 0 "/></g></g></g><g fill="rgb(32.939148%, 32.939148%, 32.939148%)" fill-opacity="1"><g transform="translate(404.303811, 100.809441)"><g><path d="M 9.609375 -13.5625 L 11.3125 -13.5625 L 6.421875 0 L 4.859375 0 L 0 -13.5625 L 1.671875 -13.5625 L 4.78125 -4.78125 C 5.144531 -3.78125 5.429688 -2.800781 5.640625 -1.84375 C 5.859375 -2.84375 6.148438 -3.84375 6.515625 -4.84375 Z M 9.609375 -13.5625 "/></g></g></g><g fill="rgb(32.939148%, 32.939148%, 32.939148%)" fill-opacity="1"><g transform="translate(415.612987, 100.809441)"><g><path d="M 3.171875 0 L 1.640625 0 L 1.640625 -10.171875 L 3.171875 -10.171875 Z M 1.5 -12.921875 C 1.5 -13.273438 1.582031 -13.53125 1.75 -13.6875 C 1.925781 -13.851562 2.144531 -13.9375 2.40625 -13.9375 C 2.65625 -13.9375 2.867188 -13.851562 3.046875 -13.6875 C 3.234375 -13.519531 3.328125 -13.265625 3.328125 -12.921875 C 3.328125 -12.578125 3.234375 -12.316406 3.046875 -12.140625 C 2.867188 -11.972656 2.65625 -11.890625 2.40625 -11.890625 C 2.144531 -11.890625 1.925781 -11.972656 1.75 -12.140625 C 1.582031 -12.316406 1.5 -12.578125 1.5 -12.921875 Z M 1.5 -12.921875 "/></g></g></g><g fill="rgb(32.939148%, 32.939148%, 32.939148%)" fill-opacity="1"><g transform="translate(420.418692, 100.809441)"><g><path d="M 8.546875 -1.359375 L 8.46875 -1.359375 C 7.757812 -0.328125 6.695312 0.1875 5.28125 0.1875 C 3.945312 0.1875 2.910156 -0.265625 2.171875 -1.171875 C 1.429688 -2.085938 1.0625 -3.382812 1.0625 -5.0625 C 1.0625 -6.738281 1.429688 -8.039062 2.171875 -8.96875 C 2.921875 -9.894531 3.957031 -10.359375 5.28125 -10.359375 C 6.65625 -10.359375 7.710938 -9.851562 8.453125 -8.84375 L 8.578125 -8.84375 L 8.5 -9.578125 L 8.46875 -10.296875 L 8.46875 -14.4375 L 10.015625 -14.4375 L 10.015625 0 L 8.765625 0 Z M 5.46875 -1.109375 C 6.519531 -1.109375 7.28125 -1.394531 7.75 -1.96875 C 8.226562 -2.539062 8.46875 -3.460938 8.46875 -4.734375 L 8.46875 -5.0625 C 8.46875 -6.5 8.226562 -7.523438 7.75 -8.140625 C 7.269531 -8.753906 6.503906 -9.0625 5.453125 -9.0625 C 4.546875 -9.0625 3.851562 -8.707031 3.375 -8 C 2.894531 -7.300781 2.65625 -6.3125 2.65625 -5.03125 C 2.65625 -3.738281 2.894531 -2.757812 3.375 -2.09375 C 3.851562 -1.4375 4.550781 -1.109375 5.46875 -1.109375 Z M 5.46875 -1.109375 "/></g></g></g><g fill="rgb(32.939148%, 32.939148%, 32.939148%)" fill-opacity="1"><g transform="translate(432.061855, 100.809441)"><g><path d="M 5.921875 0.1875 C 4.421875 0.1875 3.234375 -0.269531 2.359375 -1.1875 C 1.492188 -2.101562 1.0625 -3.375 1.0625 -5 C 1.0625 -6.632812 1.460938 -7.9375 2.265625 -8.90625 C 3.078125 -9.875 4.164062 -10.359375 5.53125 -10.359375 C 6.800781 -10.359375 7.804688 -9.9375 8.546875 -9.09375 C 9.296875 -8.257812 9.671875 -7.15625 9.671875 -5.78125 L 9.671875 -4.8125 L 2.65625 -4.8125 C 2.6875 -3.613281 2.988281 -2.703125 3.5625 -2.078125 C 4.132812 -1.460938 4.941406 -1.15625 5.984375 -1.15625 C 7.078125 -1.15625 8.160156 -1.382812 9.234375 -1.84375 L 9.234375 -0.46875 C 8.691406 -0.238281 8.175781 -0.0703125 7.6875 0.03125 C 7.195312 0.132812 6.609375 0.1875 5.921875 0.1875 Z M 5.515625 -9.0625 C 4.691406 -9.0625 4.035156 -8.796875 3.546875 -8.265625 C 3.066406 -7.734375 2.785156 -7 2.703125 -6.0625 L 8.015625 -6.0625 C 8.015625 -7.03125 7.796875 -7.769531 7.359375 -8.28125 C 6.929688 -8.800781 6.316406 -9.0625 5.515625 -9.0625 Z M 5.515625 -9.0625 "/></g></g></g><g fill="rgb(32.939148%, 32.939148%, 32.939148%)" fill-opacity="1"><g transform="translate(442.721612, 100.809441)"><g><path d="M 10.40625 -5.09375 C 10.40625 -3.4375 9.988281 -2.140625 9.15625 -1.203125 C 8.320312 -0.273438 7.171875 0.1875 5.703125 0.1875 C 4.785156 0.1875 3.972656 -0.0234375 3.265625 -0.453125 C 2.566406 -0.878906 2.023438 -1.488281 1.640625 -2.28125 C 1.253906 -3.082031 1.0625 -4.019531 1.0625 -5.09375 C 1.0625 -6.75 1.472656 -8.039062 2.296875 -8.96875 C 3.128906 -9.894531 4.285156 -10.359375 5.765625 -10.359375 C 7.179688 -10.359375 8.304688 -9.882812 9.140625 -8.9375 C 9.984375 -7.988281 10.40625 -6.707031 10.40625 -5.09375 Z M 2.65625 -5.09375 C 2.65625 -3.789062 2.914062 -2.800781 3.4375 -2.125 C 3.957031 -1.445312 4.722656 -1.109375 5.734375 -1.109375 C 6.742188 -1.109375 7.507812 -1.445312 8.03125 -2.125 C 8.550781 -2.800781 8.8125 -3.789062 8.8125 -5.09375 C 8.8125 -6.382812 8.550781 -7.363281 8.03125 -8.03125 C 7.507812 -8.707031 6.738281 -9.046875 5.71875 -9.046875 C 4.707031 -9.046875 3.941406 -8.710938 3.421875 -8.046875 C 2.910156 -7.390625 2.65625 -6.40625 2.65625 -5.09375 Z M 2.65625 -5.09375 "/></g></g></g><g fill="rgb(32.939148%, 32.939148%, 32.939148%)" fill-opacity="1"><g transform="translate(454.197782, 100.809441)"><g/></g></g><g fill="rgb(32.939148%, 32.939148%, 32.939148%)" fill-opacity="1"><g transform="translate(459.13337, 100.809441)"><g><path d="M 12.109375 -13.5625 L 12.109375 -4.78125 C 12.109375 -3.238281 11.640625 -2.023438 10.703125 -1.140625 C 9.773438 -0.253906 8.492188 0.1875 6.859375 0.1875 C 5.222656 0.1875 3.957031 -0.253906 3.0625 -1.140625 C 2.164062 -2.035156 1.71875 -3.265625 1.71875 -4.828125 L 1.71875 -13.5625 L 3.296875 -13.5625 L 3.296875 -4.71875 C 3.296875 -3.582031 3.601562 -2.710938 4.21875 -2.109375 C 4.84375 -1.503906 5.753906 -1.203125 6.953125 -1.203125 C 8.097656 -1.203125 8.976562 -1.503906 9.59375 -2.109375 C 10.21875 -2.722656 10.53125 -3.597656 10.53125 -4.734375 L 10.53125 -13.5625 Z M 12.109375 -13.5625 "/></g></g></g><g fill="rgb(32.939148%, 32.939148%, 32.939148%)" fill-opacity="1"><g transform="translate(472.966005, 100.809441)"><g><path d="M 3.4375 -5.640625 L 3.4375 0 L 1.859375 0 L 1.859375 -13.5625 L 5.578125 -13.5625 C 7.242188 -13.5625 8.472656 -13.242188 9.265625 -12.609375 C 10.066406 -11.972656 10.46875 -11.015625 10.46875 -9.734375 C 10.46875 -7.941406 9.554688 -6.726562 7.734375 -6.09375 L 11.421875 0 L 9.5625 0 L 6.265625 -5.640625 Z M 3.4375 -7 L 5.609375 -7 C 6.722656 -7 7.535156 -7.21875 8.046875 -7.65625 C 8.566406 -8.101562 8.828125 -8.769531 8.828125 -9.65625 C 8.828125 -10.550781 8.5625 -11.195312 8.03125 -11.59375 C 7.507812 -11.988281 6.664062 -12.1875 5.5 -12.1875 L 3.4375 -12.1875 Z M 3.4375 -7 "/></g></g></g><g fill="rgb(32.939148%, 32.939148%, 32.939148%)" fill-opacity="1"><g transform="translate(484.71122, 100.809441)"><g><path d="M 1.859375 0 L 1.859375 -13.5625 L 3.4375 -13.5625 L 3.4375 -1.421875 L 9.421875 -1.421875 L 9.421875 0 Z M 1.859375 0 "/></g></g></g><g fill="rgb(100%, 100%, 100%)" fill-opacity="1"><g transform="translate(148.681642, 277.676258)"><g><path d="M 7.484375 -2.90625 C 7.484375 -1.957031 7.140625 -1.210938 6.453125 -0.671875 C 5.773438 -0.128906 4.832031 0.140625 3.625 0.140625 C 2.507812 0.140625 1.523438 -0.0664062 0.671875 -0.484375 L 0.671875 -2.546875 C 1.378906 -2.234375 1.972656 -2.007812 2.453125 -1.875 C 2.941406 -1.75 3.390625 -1.6875 3.796875 -1.6875 C 4.285156 -1.6875 4.660156 -1.78125 4.921875 -1.96875 C 5.179688 -2.15625 5.3125 -2.429688 5.3125 -2.796875 C 5.3125 -2.992188 5.253906 -3.171875 5.140625 -3.328125 C 5.023438 -3.492188 4.851562 -3.648438 4.625 -3.796875 C 4.40625 -3.941406 3.957031 -4.175781 3.28125 -4.5 C 2.644531 -4.800781 2.164062 -5.085938 1.84375 -5.359375 C 1.519531 -5.640625 1.265625 -5.960938 1.078125 -6.328125 C 0.890625 -6.703125 0.796875 -7.132812 0.796875 -7.625 C 0.796875 -8.539062 1.109375 -9.265625 1.734375 -9.796875 C 2.359375 -10.328125 3.222656 -10.59375 4.328125 -10.59375 C 4.867188 -10.59375 5.382812 -10.523438 5.875 -10.390625 C 6.375 -10.265625 6.890625 -10.085938 7.421875 -9.859375 L 6.71875 -8.140625 C 6.15625 -8.359375 5.691406 -8.515625 5.328125 -8.609375 C 4.960938 -8.703125 4.601562 -8.75 4.25 -8.75 C 3.832031 -8.75 3.507812 -8.648438 3.28125 -8.453125 C 3.0625 -8.253906 2.953125 -8 2.953125 -7.6875 C 2.953125 -7.488281 3 -7.316406 3.09375 -7.171875 C 3.1875 -7.035156 3.332031 -6.898438 3.53125 -6.765625 C 3.726562 -6.628906 4.191406 -6.382812 4.921875 -6.03125 C 5.898438 -5.5625 6.570312 -5.09375 6.9375 -4.625 C 7.300781 -4.15625 7.484375 -3.582031 7.484375 -2.90625 Z M 7.484375 -2.90625 "/></g></g></g><g fill="rgb(100%, 100%, 100%)" fill-opacity="1"><g transform="translate(156.730362, 277.676258)"><g><path d="M 8.296875 0 L 6.109375 0 L 6.109375 -4.65625 C 6.109375 -5.238281 6.007812 -5.671875 5.8125 -5.953125 C 5.625 -6.242188 5.320312 -6.390625 4.90625 -6.390625 C 4.351562 -6.390625 3.953125 -6.179688 3.703125 -5.765625 C 3.453125 -5.359375 3.328125 -4.6875 3.328125 -3.75 L 3.328125 0 L 1.140625 0 L 1.140625 -7.984375 L 2.8125 -7.984375 L 3.09375 -6.96875 L 3.21875 -6.96875 C 3.4375 -7.332031 3.742188 -7.617188 4.140625 -7.828125 C 4.546875 -8.035156 5.015625 -8.140625 5.546875 -8.140625 C 6.734375 -8.140625 7.539062 -7.75 7.96875 -6.96875 L 8.15625 -6.96875 C 8.375 -7.332031 8.691406 -7.617188 9.109375 -7.828125 C 9.523438 -8.035156 9.992188 -8.140625 10.515625 -8.140625 C 11.421875 -8.140625 12.101562 -7.90625 12.5625 -7.4375 C 13.03125 -6.96875 13.265625 -6.222656 13.265625 -5.203125 L 13.265625 0 L 11.078125 0 L 11.078125 -4.65625 C 11.078125 -5.238281 10.976562 -5.671875 10.78125 -5.953125 C 10.59375 -6.242188 10.296875 -6.390625 9.890625 -6.390625 C 9.347656 -6.390625 8.945312 -6.195312 8.6875 -5.8125 C 8.425781 -5.4375 8.296875 -4.832031 8.296875 -4 Z M 8.296875 0 "/></g></g></g><g fill="rgb(100%, 100%, 100%)" fill-opacity="1"><g transform="translate(171.079639, 277.676258)"><g><path d="M 6.21875 0 L 5.796875 -1.078125 L 5.734375 -1.078125 C 5.367188 -0.617188 4.988281 -0.300781 4.59375 -0.125 C 4.207031 0.0507812 3.703125 0.140625 3.078125 0.140625 C 2.316406 0.140625 1.710938 -0.078125 1.265625 -0.515625 C 0.828125 -0.953125 0.609375 -1.578125 0.609375 -2.390625 C 0.609375 -3.234375 0.90625 -3.851562 1.5 -4.25 C 2.09375 -4.65625 2.988281 -4.878906 4.1875 -4.921875 L 5.5625 -4.96875 L 5.5625 -5.3125 C 5.5625 -6.125 5.148438 -6.53125 4.328125 -6.53125 C 3.691406 -6.53125 2.941406 -6.335938 2.078125 -5.953125 L 1.359375 -7.421875 C 2.273438 -7.898438 3.289062 -8.140625 4.40625 -8.140625 C 5.476562 -8.140625 6.300781 -7.90625 6.875 -7.4375 C 7.445312 -6.976562 7.734375 -6.269531 7.734375 -5.3125 L 7.734375 0 Z M 5.5625 -3.703125 L 4.734375 -3.671875 C 4.097656 -3.648438 3.625 -3.535156 3.3125 -3.328125 C 3 -3.117188 2.84375 -2.800781 2.84375 -2.375 C 2.84375 -1.757812 3.195312 -1.453125 3.90625 -1.453125 C 4.40625 -1.453125 4.804688 -1.597656 5.109375 -1.890625 C 5.410156 -2.179688 5.5625 -2.566406 5.5625 -3.046875 Z M 5.5625 -3.703125 "/></g></g></g><g fill="rgb(100%, 100%, 100%)" fill-opacity="1"><g transform="translate(179.906123, 277.676258)"><g><path d="M 3.328125 0 L 1.140625 0 L 1.140625 -11.109375 L 3.328125 -11.109375 Z M 3.328125 0 "/></g></g></g><g fill="rgb(100%, 100%, 100%)" fill-opacity="1"><g transform="translate(184.365748, 277.676258)"><g><path d="M 3.328125 0 L 1.140625 0 L 1.140625 -11.109375 L 3.328125 -11.109375 Z M 3.328125 0 "/></g></g></g><g fill="rgb(100%, 100%, 100%)" fill-opacity="1"><g transform="translate(138.714846, 325.841987)"><g><path d="M 5.734375 0 L 3.21875 -8.1875 L 3.15625 -8.1875 C 3.25 -6.519531 3.296875 -5.410156 3.296875 -4.859375 L 3.296875 0 L 1.3125 0 L 1.3125 -10.4375 L 4.328125 -10.4375 L 6.796875 -2.453125 L 6.84375 -2.453125 L 9.46875 -10.4375 L 12.46875 -10.4375 L 12.46875 0 L 10.40625 0 L 10.40625 -4.9375 C 10.40625 -5.175781 10.410156 -5.445312 10.421875 -5.75 C 10.429688 -6.050781 10.460938 -6.859375 10.515625 -8.171875 L 10.453125 -8.171875 L 7.765625 0 Z M 5.734375 0 "/></g></g></g><g fill="rgb(100%, 100%, 100%)" fill-opacity="1"><g transform="translate(152.493291, 325.841987)"><g><path d="M 4.453125 -6.578125 C 3.984375 -6.578125 3.617188 -6.429688 3.359375 -6.140625 C 3.097656 -5.847656 2.945312 -5.4375 2.90625 -4.90625 L 5.96875 -4.90625 C 5.957031 -5.4375 5.816406 -5.847656 5.546875 -6.140625 C 5.273438 -6.429688 4.910156 -6.578125 4.453125 -6.578125 Z M 4.75 0.140625 C 3.46875 0.140625 2.460938 -0.210938 1.734375 -0.921875 C 1.015625 -1.628906 0.65625 -2.632812 0.65625 -3.9375 C 0.65625 -5.269531 0.988281 -6.300781 1.65625 -7.03125 C 2.320312 -7.769531 3.25 -8.140625 4.4375 -8.140625 C 5.5625 -8.140625 6.4375 -7.816406 7.0625 -7.171875 C 7.695312 -6.523438 8.015625 -5.632812 8.015625 -4.5 L 8.015625 -3.453125 L 2.859375 -3.453125 C 2.890625 -2.828125 3.070312 -2.34375 3.40625 -2 C 3.75 -1.65625 4.234375 -1.484375 4.859375 -1.484375 C 5.335938 -1.484375 5.789062 -1.53125 6.21875 -1.625 C 6.644531 -1.726562 7.09375 -1.890625 7.5625 -2.109375 L 7.5625 -0.421875 C 7.175781 -0.234375 6.765625 -0.09375 6.328125 0 C 5.898438 0.09375 5.375 0.140625 4.75 0.140625 Z M 4.75 0.140625 "/></g></g></g><g fill="rgb(100%, 100%, 100%)" fill-opacity="1"><g transform="translate(161.127114, 325.841987)"><g><path d="M 3.671875 0.140625 C 2.734375 0.140625 1.992188 -0.222656 1.453125 -0.953125 C 0.921875 -1.679688 0.65625 -2.691406 0.65625 -3.984375 C 0.65625 -5.285156 0.925781 -6.300781 1.46875 -7.03125 C 2.019531 -7.769531 2.773438 -8.140625 3.734375 -8.140625 C 4.734375 -8.140625 5.5 -7.75 6.03125 -6.96875 L 6.09375 -6.96875 C 5.988281 -7.5625 5.9375 -8.09375 5.9375 -8.5625 L 5.9375 -11.109375 L 8.125 -11.109375 L 8.125 0 L 6.453125 0 L 6.03125 -1.03125 L 5.9375 -1.03125 C 5.4375 -0.25 4.679688 0.140625 3.671875 0.140625 Z M 4.4375 -1.59375 C 4.988281 -1.59375 5.394531 -1.753906 5.65625 -2.078125 C 5.914062 -2.398438 6.054688 -2.953125 6.078125 -3.734375 L 6.078125 -3.96875 C 6.078125 -4.820312 5.945312 -5.429688 5.6875 -5.796875 C 5.425781 -6.171875 5 -6.359375 4.40625 -6.359375 C 3.914062 -6.359375 3.535156 -6.148438 3.265625 -5.734375 C 2.992188 -5.328125 2.859375 -4.734375 2.859375 -3.953125 C 2.859375 -3.160156 2.992188 -2.566406 3.265625 -2.171875 C 3.535156 -1.785156 3.925781 -1.59375 4.4375 -1.59375 Z M 4.4375 -1.59375 "/></g></g></g><g fill="rgb(100%, 100%, 100%)" fill-opacity="1"><g transform="translate(170.37458, 325.841987)"><g><path d="M 1.046875 -10.046875 C 1.046875 -10.753906 1.441406 -11.109375 2.234375 -11.109375 C 3.023438 -11.109375 3.421875 -10.753906 3.421875 -10.046875 C 3.421875 -9.710938 3.320312 -9.445312 3.125 -9.25 C 2.925781 -9.0625 2.628906 -8.96875 2.234375 -8.96875 C 1.441406 -8.96875 1.046875 -9.328125 1.046875 -10.046875 Z M 3.328125 0 L 1.140625 0 L 1.140625 -7.984375 L 3.328125 -7.984375 Z M 3.328125 0 "/></g></g></g><g fill="rgb(100%, 100%, 100%)" fill-opacity="1"><g transform="translate(174.834205, 325.841987)"><g><path d="M 6.796875 0 L 6.5 -1.015625 L 6.390625 -1.015625 C 6.160156 -0.648438 5.828125 -0.363281 5.390625 -0.15625 C 4.960938 0.0390625 4.476562 0.140625 3.9375 0.140625 C 3 0.140625 2.289062 -0.109375 1.8125 -0.609375 C 1.332031 -1.109375 1.09375 -1.832031 1.09375 -2.78125 L 1.09375 -7.984375 L 3.28125 -7.984375 L 3.28125 -3.328125 C 3.28125 -2.742188 3.378906 -2.304688 3.578125 -2.015625 C 3.785156 -1.734375 4.113281 -1.59375 4.5625 -1.59375 C 5.175781 -1.59375 5.617188 -1.796875 5.890625 -2.203125 C 6.160156 -2.609375 6.296875 -3.285156 6.296875 -4.234375 L 6.296875 -7.984375 L 8.46875 -7.984375 L 8.46875 0 Z M 6.796875 0 "/></g></g></g><g fill="rgb(100%, 100%, 100%)" fill-opacity="1"><g transform="translate(184.438441, 325.841987)"><g><path d="M 8.296875 0 L 6.109375 0 L 6.109375 -4.65625 C 6.109375 -5.238281 6.007812 -5.671875 5.8125 -5.953125 C 5.625 -6.242188 5.320312 -6.390625 4.90625 -6.390625 C 4.351562 -6.390625 3.953125 -6.179688 3.703125 -5.765625 C 3.453125 -5.359375 3.328125 -4.6875 3.328125 -3.75 L 3.328125 0 L 1.140625 0 L 1.140625 -7.984375 L 2.8125 -7.984375 L 3.09375 -6.96875 L 3.21875 -6.96875 C 3.4375 -7.332031 3.742188 -7.617188 4.140625 -7.828125 C 4.546875 -8.035156 5.015625 -8.140625 5.546875 -8.140625 C 6.734375 -8.140625 7.539062 -7.75 7.96875 -6.96875 L 8.15625 -6.96875 C 8.375 -7.332031 8.691406 -7.617188 9.109375 -7.828125 C 9.523438 -8.035156 9.992188 -8.140625 10.515625 -8.140625 C 11.421875 -8.140625 12.101562 -7.90625 12.5625 -7.4375 C 13.03125 -6.96875 13.265625 -6.222656 13.265625 -5.203125 L 13.265625 0 L 11.078125 0 L 11.078125 -4.65625 C 11.078125 -5.238281 10.976562 -5.671875 10.78125 -5.953125 C 10.59375 -6.242188 10.296875 -6.390625 9.890625 -6.390625 C 9.347656 -6.390625 8.945312 -6.195312 8.6875 -5.8125 C 8.425781 -5.4375 8.296875 -4.832031 8.296875 -4 Z M 8.296875 0 "/></g></g></g><g fill="rgb(100%, 100%, 100%)" fill-opacity="1"><g transform="translate(148.447267, 374.510536)"><g><path d="M 1.3125 0 L 1.3125 -10.4375 L 3.53125 -10.4375 L 3.53125 -1.828125 L 7.765625 -1.828125 L 7.765625 0 Z M 1.3125 0 "/></g></g></g><g fill="rgb(100%, 100%, 100%)" fill-opacity="1"><g transform="translate(156.70292, 374.510536)"><g><path d="M 6.21875 0 L 5.796875 -1.078125 L 5.734375 -1.078125 C 5.367188 -0.617188 4.988281 -0.300781 4.59375 -0.125 C 4.207031 0.0507812 3.703125 0.140625 3.078125 0.140625 C 2.316406 0.140625 1.710938 -0.078125 1.265625 -0.515625 C 0.828125 -0.953125 0.609375 -1.578125 0.609375 -2.390625 C 0.609375 -3.234375 0.90625 -3.851562 1.5 -4.25 C 2.09375 -4.65625 2.988281 -4.878906 4.1875 -4.921875 L 5.5625 -4.96875 L 5.5625 -5.3125 C 5.5625 -6.125 5.148438 -6.53125 4.328125 -6.53125 C 3.691406 -6.53125 2.941406 -6.335938 2.078125 -5.953125 L 1.359375 -7.421875 C 2.273438 -7.898438 3.289062 -8.140625 4.40625 -8.140625 C 5.476562 -8.140625 6.300781 -7.90625 6.875 -7.4375 C 7.445312 -6.976562 7.734375 -6.269531 7.734375 -5.3125 L 7.734375 0 Z M 5.5625 -3.703125 L 4.734375 -3.671875 C 4.097656 -3.648438 3.625 -3.535156 3.3125 -3.328125 C 3 -3.117188 2.84375 -2.800781 2.84375 -2.375 C 2.84375 -1.757812 3.195312 -1.453125 3.90625 -1.453125 C 4.40625 -1.453125 4.804688 -1.597656 5.109375 -1.890625 C 5.410156 -2.179688 5.5625 -2.566406 5.5625 -3.046875 Z M 5.5625 -3.703125 "/></g></g></g><g fill="rgb(100%, 100%, 100%)" fill-opacity="1"><g transform="translate(165.529404, 374.510536)"><g><path d="M 5.59375 -8.140625 C 5.894531 -8.140625 6.140625 -8.113281 6.328125 -8.0625 L 6.171875 -6.03125 C 5.992188 -6.070312 5.78125 -6.09375 5.53125 -6.09375 C 4.832031 -6.09375 4.289062 -5.914062 3.90625 -5.5625 C 3.519531 -5.207031 3.328125 -4.707031 3.328125 -4.0625 L 3.328125 0 L 1.140625 0 L 1.140625 -7.984375 L 2.796875 -7.984375 L 3.109375 -6.640625 L 3.21875 -6.640625 C 3.46875 -7.085938 3.800781 -7.445312 4.21875 -7.71875 C 4.644531 -8 5.101562 -8.140625 5.59375 -8.140625 Z M 5.59375 -8.140625 "/></g></g></g><g fill="rgb(100%, 100%, 100%)" fill-opacity="1"><g transform="translate(172.165317, 374.510536)"><g><path d="M 8.09375 -7.984375 L 8.09375 -6.875 L 6.84375 -6.5625 C 7.070312 -6.195312 7.1875 -5.796875 7.1875 -5.359375 C 7.1875 -4.503906 6.882812 -3.835938 6.28125 -3.359375 C 5.6875 -2.878906 4.859375 -2.640625 3.796875 -2.640625 L 3.40625 -2.65625 L 3.078125 -2.6875 C 2.859375 -2.519531 2.75 -2.332031 2.75 -2.125 C 2.75 -1.8125 3.148438 -1.65625 3.953125 -1.65625 L 5.3125 -1.65625 C 6.1875 -1.65625 6.851562 -1.460938 7.3125 -1.078125 C 7.769531 -0.703125 8 -0.148438 8 0.578125 C 8 1.503906 7.609375 2.222656 6.828125 2.734375 C 6.046875 3.253906 4.929688 3.515625 3.484375 3.515625 C 2.367188 3.515625 1.515625 3.316406 0.921875 2.921875 C 0.335938 2.535156 0.046875 1.992188 0.046875 1.296875 C 0.046875 0.816406 0.191406 0.414062 0.484375 0.09375 C 0.785156 -0.226562 1.226562 -0.457031 1.8125 -0.59375 C 1.59375 -0.695312 1.398438 -0.851562 1.234375 -1.0625 C 1.066406 -1.28125 0.984375 -1.507812 0.984375 -1.75 C 0.984375 -2.0625 1.066406 -2.316406 1.234375 -2.515625 C 1.410156 -2.722656 1.664062 -2.921875 2 -3.109375 C 1.582031 -3.296875 1.25 -3.585938 1 -3.984375 C 0.757812 -4.378906 0.640625 -4.851562 0.640625 -5.40625 C 0.640625 -6.269531 0.921875 -6.941406 1.484375 -7.421875 C 2.054688 -7.898438 2.867188 -8.140625 3.921875 -8.140625 C 4.140625 -8.140625 4.398438 -8.117188 4.703125 -8.078125 C 5.015625 -8.035156 5.21875 -8.003906 5.3125 -7.984375 Z M 1.921875 1.125 C 1.921875 1.425781 2.066406 1.660156 2.359375 1.828125 C 2.648438 2.003906 3.054688 2.09375 3.578125 2.09375 C 4.347656 2.09375 4.953125 1.984375 5.390625 1.765625 C 5.835938 1.554688 6.0625 1.265625 6.0625 0.890625 C 6.0625 0.585938 5.929688 0.378906 5.671875 0.265625 C 5.410156 0.148438 5.007812 0.09375 4.46875 0.09375 L 3.328125 0.09375 C 2.929688 0.09375 2.597656 0.1875 2.328125 0.375 C 2.054688 0.570312 1.921875 0.820312 1.921875 1.125 Z M 2.71875 -5.375 C 2.71875 -4.9375 2.816406 -4.59375 3.015625 -4.34375 C 3.210938 -4.09375 3.515625 -3.96875 3.921875 -3.96875 C 4.328125 -3.96875 4.625 -4.09375 4.8125 -4.34375 C 5.007812 -4.59375 5.109375 -4.9375 5.109375 -5.375 C 5.109375 -6.332031 4.710938 -6.8125 3.921875 -6.8125 C 3.117188 -6.8125 2.71875 -6.332031 2.71875 -5.375 Z M 2.71875 -5.375 "/></g></g></g><g fill="rgb(100%, 100%, 100%)" fill-opacity="1"><g transform="translate(180.42097, 374.510536)"><g><path d="M 4.453125 -6.578125 C 3.984375 -6.578125 3.617188 -6.429688 3.359375 -6.140625 C 3.097656 -5.847656 2.945312 -5.4375 2.90625 -4.90625 L 5.96875 -4.90625 C 5.957031 -5.4375 5.816406 -5.847656 5.546875 -6.140625 C 5.273438 -6.429688 4.910156 -6.578125 4.453125 -6.578125 Z M 4.75 0.140625 C 3.46875 0.140625 2.460938 -0.210938 1.734375 -0.921875 C 1.015625 -1.628906 0.65625 -2.632812 0.65625 -3.9375 C 0.65625 -5.269531 0.988281 -6.300781 1.65625 -7.03125 C 2.320312 -7.769531 3.25 -8.140625 4.4375 -8.140625 C 5.5625 -8.140625 6.4375 -7.816406 7.0625 -7.171875 C 7.695312 -6.523438 8.015625 -5.632812 8.015625 -4.5 L 8.015625 -3.453125 L 2.859375 -3.453125 C 2.890625 -2.828125 3.070312 -2.34375 3.40625 -2 C 3.75 -1.65625 4.234375 -1.484375 4.859375 -1.484375 C 5.335938 -1.484375 5.789062 -1.53125 6.21875 -1.625 C 6.644531 -1.726562 7.09375 -1.890625 7.5625 -2.109375 L 7.5625 -0.421875 C 7.175781 -0.234375 6.765625 -0.09375 6.328125 0 C 5.898438 0.09375 5.375 0.140625 4.75 0.140625 Z M 4.75 0.140625 "/></g></g></g></svg>